<svg xmlns="http://www.w3.org/2000/svg" version="1.1" xmlns:xlink="http://www.w3.org/1999/xlink" xmlns:svgjs="http://svgjs.com/svgjs" width="512" height="512" x="0" y="0" viewBox="0 0 512 512" style="enable-background:new 0 0 512 512" xml:space="preserve"><g><path d="M444.982 228.438c-11.779-5.086-24.783-7.677-38.698-7.677-25.358 0-49.83 8.565-69.839 18.965-1.296-1.739-2.639-3.419-4.127-4.966 7.605-7.665 13.987-15.522 17.706-22.828 14.467-28.358 17.897-75.753 7.653-105.658-4.391-12.764-10.94-21.269-19.529-25.299-23.319-10.928-73.078 12.332-91.359 33.384-15.379 17.67-21.784 40.833-23.272 64.009-2.279.528-4.51 1.151-6.646 1.943-14.083-16.291-33.108-31.969-58.059-42.825-17.37-7.558-36.443-11.396-56.668-11.396-44.528 0-88.144 19.613-99.3 44.672-6.406 14.479-1.895 36.503 12.428 60.41 20.393 34.079 61.25 71.938 114.799 75.993 3.862.287 7.629.432 11.3.432 10.101 0 19.361-1.08 28.286-2.64-5.59 12.476-9.309 27.998-10.004 47.335-1.152 32.197 20.8 75.693 48.126 80.611 3.479.623 7.173.912 10.988.912 32.196 0 73.029-22.408 85.648-59.907 3.504-10.364 4.391-23.919 3.455-38.122.672-.096 1.344-.24 2.016-.384 15.618 30.901 44.456 65.304 99.924 67.8.192 0 2.471.048 2.664.048 30.732 0 92.102-24.999 98.652-60.65 4.895-26.774-9.86-89.823-66.144-114.162zm-179.648-97.957c8.109-9.356 24.64-18.953 39.467-24.111-21.641 25.863-32.461 58.263-37.763 80.887-5.614-4.163-11.828-7.582-19.025-9.153 1.439-18.078 6.573-35.255 17.321-47.623zm-32.7 70.991c1.128-.12 2.255-.18 3.383-.18 11.636 0 24.28 6.765 26.342 21.844 2.543 18.702.264 32.725-6.573 40.558-5.038 5.781-11.78 6.993-16.53 6.993-4.63 0-9.404-1.104-13.771-3.179-9.645-4.582-19.769-20.393-19.673-30.769.12-15.678 7.246-33.192 26.822-35.267zm-130.489-50.814c16.842 0 32.604 3.143 46.879 9.357 20.537 8.925 35.867 21.508 47.287 34.32-4.583 5.158-8.205 11.312-10.772 18.221-26.631-12.008-98.197-41.709-152.082-41.193 12.956-10.449 38.603-20.705 68.688-20.705zm39.25 132.371c-3.095 0-6.238-.119-9.453-.359-44.264-3.358-79.147-36.634-95.582-64.116-5.278-8.793-8.205-16.194-9.909-22.336 52.613-4.643 136.295 32.736 154.913 41.445.24 11.732 5.566 24.735 13.723 35.219-2.83 3.394-35.147 10.147-53.692 10.147zm56.284 112.737c-7.534-11.084-14.011-27.494-13.459-42.561 1.271-35.508 14.587-54.029 30.349-63.722 4.774 2.304 9.429 3.647 14.131 4.559-10.652 21.808-26.823 60.578-31.021 101.724zm83.466-29.702c-8.373 24.879-37.09 42.177-59.762 43.232 1.583-43.089 20.657-86.945 31.189-108.058 2.759 7.102 6.669 14.203 12.499 20.058 5.422 5.493 11.588 9.404 18.139 11.947 1.174 12.38.813 24.28-2.065 32.821zm28.118-55.851c-11.684 4.222-21.808-1.248-26.75-6.19-6.214-6.286-9.069-13.963-9.045-17.166.024-1.296.12-3.706.36-6.598 7.629-8.624 11.635-19.577 13.146-32.58 2.375-1.751 5.015-3.131 8.325-3.479a24.338 24.338 0 0 1 2.472-.132c14.539 0 25.406 13.351 27.063 33.228 1.607 19.481-7.391 29.893-15.571 32.917zm1.679-88.636c-5.733-1.667-11.804-2.471-18.233-1.799-1.848.192-3.574.671-5.303 1.151-.191-3.491-.336-7.33-.119-8.757 1.439-10.172 6.094-35.639 17.969-60.722l1.561-3.227c6.573-13.147 15.354-25.851 26.701-36.143.313.756.601 1.272.912 2.159 7.197 20.993 6.382 61.694-6.285 86.513-3.408 6.669-9.79 13.903-17.203 20.825zm106.642 156.866c-1.775.145-8.613.096-9.597.049-41.673-2.976-63.769-28.766-76.292-53.789 5.062-4.438 9.477-10.461 12.738-17.754 23.104 2.159 94.767 11.084 137.543 40.354-11.874 14.635-42.656 29.029-64.392 31.14zm-68.447-95.761c.023-2.494.384-4.738.168-7.425-.384-4.679-1.224-9.116-2.327-13.363 16.89-8.792 38.074-16.565 59.307-16.565 10.532 0 20.272 1.907 28.958 5.662 34.235 14.815 48.174 47.682 51.389 70.21-46.472-27.159-111.849-36.036-137.495-38.519z" fill="#000000" data-original="#000000"></path></g></svg>