<svg xmlns="http://www.w3.org/2000/svg" version="1.1" xmlns:xlink="http://www.w3.org/1999/xlink" xmlns:svgjs="http://svgjs.com/svgjs" width="512" height="512" x="0" y="0" viewBox="0 0 512 512" style="enable-background:new 0 0 512 512" xml:space="preserve" class=""><g><path d="M457.227 20.284c-2.135-7.336-7.02-13.363-13.754-16.972-13.492-7.229-30.52-2.227-37.958 11.151L379.67 60.951c-27.606-5.431-57.352 2.501-78.699 23.81-.276.276-.539.571-.781.877-15.795 19.975-63.792 71.094-95.818 67.877-4.658-.481-9.012 2.349-10.491 6.787a10 10 0 0 0 4.321 11.725c16.033 9.673 33.866 17.063 56.427 14.623-23.565 34.512-72.451 95.098-148.828 138.745-29.74 16.996-52.167 54.44-52.167 87.099 0 26.218 10.349 50.785 29.142 69.175 18.241 17.851 42.898 28.504 69.43 29.997 3.972.223 7.917.335 11.841.335 37.285 0 72.342-10.085 104.358-30.048 28.956-18.054 55.582-44.292 79.138-77.985 33.756-48.281 54.016-101.48 64.18-133.321a190.304 190.304 0 0 0 7.98 9.595 10 10 0 0 0 17.466-7.038c-1.49-37.917 2.298-76.191 10.665-107.771.038-.142.072-.285.104-.429 5.955-27.282-1.37-55.291-19.626-76.05l26.422-46.969c3.741-6.658 4.629-14.366 2.493-21.701zM331.149 392.508c-48.74 69.714-108.56 103.091-177.821 99.188-45.434-2.557-79.696-36.607-79.696-79.203 0-25.188 18.882-56.471 42.091-69.734 96.758-55.296 151.335-136.671 167.695-163.923 13.473-5.69 28.442-14.634 45.284-27.802.161-.126.344-.268.729-.076.414.207.409.479.405.678-.448 23.281 2.603 44.418 19.17 77.811a9.992 9.992 0 0 0 10.255 5.471 9.998 9.998 0 0 0 8.502-7.925c3.156-15.539 7.482-33.113 15.71-47.341-1.576 19.061-.395 42.529 13.923 69.189-7.205 25.625-27.449 88.174-66.247 143.667zm97.289-231.974c-6.536 24.749-10.423 53.269-11.365 82.557-14.631-25.052-15.241-46.556-13.377-64.926.917-9.038-4.231-17.13-12.812-20.137a19.58 19.58 0 0 0-6.483-1.12c-6.282 0-12.187 3.136-15.813 8.756-5.579 8.648-9.713 18.23-12.922 27.947-5.633-17.316-6.063-29.68-5.834-41.589.155-8.083-4.238-15.346-11.464-18.955-7.208-3.6-15.633-2.753-21.985 2.212-36.26 28.354-60.692 34.258-79.803 31.071 13.124-6.084 27.327-15.956 42.506-29.567 19.394-17.39 33.814-35.028 36.402-38.252 26.263-25.803 68.654-25.674 94.756.384 16.22 16.192 23.013 39.212 18.194 61.619zm8.86-128.354-24.234 43.081a86.565 86.565 0 0 0-13.984-8.064l23.915-43.016c2.162-3.889 7.111-5.342 11.031-3.241a8.132 8.132 0 0 1 3.998 4.932 8.13 8.13 0 0 1-.726 6.308z" fill="#000000" data-original="#000000"></path><path d="M309.135 359.378c-4.615-3.034-10.815-1.752-13.849 2.864-28.267 43.004-62.053 71.146-100.418 83.644-5.251 1.711-8.121 7.354-6.411 12.606 1.375 4.222 5.294 6.905 9.506 6.905 1.026 0 2.071-.16 3.1-.495 42.79-13.94 80.114-44.784 110.936-91.675 3.033-4.616 1.751-10.815-2.864-13.849zM328.721 329.164a10.06 10.06 0 0 0-7.07-2.93c-2.63 0-5.21 1.07-7.07 2.93a10.076 10.076 0 0 0-2.93 7.07c0 2.64 1.07 5.21 2.93 7.07 1.86 1.87 4.44 2.93 7.07 2.93 2.64 0 5.21-1.06 7.07-2.93 1.86-1.86 2.93-4.43 2.93-7.07 0-2.63-1.07-5.21-2.93-7.07z" fill="#000000" data-original="#000000"></path></g></svg>