<svg xmlns="http://www.w3.org/2000/svg" version="1.1" xmlns:xlink="http://www.w3.org/1999/xlink" xmlns:svgjs="http://svgjs.com/svgjs" width="512" height="512" x="0" y="0" viewBox="0 0 64 64" style="enable-background:new 0 0 512 512" xml:space="preserve" class=""><g><path d="M11.392 58.9a17.215 17.215 0 0 0 7.992 1.978c1.787 0 3.583-.281 5.335-.846a32.241 32.241 0 0 0 5.484-2.231c2.341 1.656 5.056 2.5 7.785 2.5 2.468 0 4.945-.684 7.156-2.062A34.657 34.657 0 0 0 60.98 34.594a34.65 34.65 0 0 0-7.222-27.525 3.796 3.796 0 0 1-.815-1.913 2.294 2.294 0 0 0-1.613-1.922 2.298 2.298 0 0 0-2.418.669 10.252 10.252 0 0 1-2.863 2.24 42.422 42.422 0 0 0-21.516 27.86c-.164.003-.328 0-.492.005l-.815.025a28.912 28.912 0 0 0-14.6 4.484 15.165 15.165 0 0 0-3.997 2.897 7.208 7.208 0 0 0-1.78 7.182A17.18 17.18 0 0 0 11.392 58.9zM46.515 7.027a11.27 11.27 0 0 0 3.143-2.458c.354-.396.868-.54 1.375-.38.508.158.851.566.918 1.093a4.804 4.804 0 0 0 1.03 2.416 33.65 33.65 0 0 1 7.013 26.73A33.65 33.65 0 0 1 44.615 57.39a12.434 12.434 0 0 1-13.421-.121 32.364 32.364 0 0 0 11.291-10.595 7.184 7.184 0 0 0 .696-6.515 7.168 7.168 0 0 0-4.393-4.267 92.255 92.255 0 0 1 8.749-25.269l.776-1.496-.887-.461-.776 1.496a93.164 93.164 0 0 0-8.823 25.445 47.736 47.736 0 0 0-4.546-.982l.673-2.572a35.832 35.832 0 0 1 3.866-9.238l-.859-.512a36.741 36.741 0 0 0-3.974 9.497l-.701 2.677a47.062 47.062 0 0 0-2.249-.268 50.272 50.272 0 0 1 6.493-14.31l2.957-4.483-.834-.551-2.957 4.483a51.267 51.267 0 0 0-6.674 14.774 48.46 48.46 0 0 0-3.454-.132A41.424 41.424 0 0 1 46.515 7.025zM23.256 35.033l.815-.025a46.76 46.76 0 0 1 14.005 1.697 6.196 6.196 0 0 1 4.17 3.81 6.192 6.192 0 0 1-.602 5.616 31.372 31.372 0 0 1-13.172 11.404 8.557 8.557 0 0 0 1.374-2.168l1.961-1.063a22.353 22.353 0 0 0 8.668-8.41l-.865-.503a21.342 21.342 0 0 1-8.279 8.034l-1.012.548a8.34 8.34 0 0 0-.092-4.407l-.219-.734a24.01 24.01 0 0 0 10.735-7.07l.362-.416-.754-.657-.362.416a23 23 0 0 1-10.267 6.769l-.056-.187a15 15 0 0 0-3.502-6.062l.599-.263a26.083 26.083 0 0 1 7.491-2.03l-.115-.993a27.132 27.132 0 0 0-7.778 2.107l-.969.426a14.777 14.777 0 0 0-2.545-1.859 76.716 76.716 0 0 1 6.576-1.347l-.154-.988a77.864 77.864 0 0 0-7.793 1.633 15.1 15.1 0 0 0-7.785-1.259 27.884 27.884 0 0 1 9.565-2.018zM5.34 42.119c2.68-2.703 6.217-4.154 9.892-4.154 1.146 0 2.307.141 3.458.43 4.845 1.213 8.59 4.794 10.019 9.579l.562 1.879c1.15 3.851-1.025 7.989-4.849 9.226a16.185 16.185 0 0 1-12.566-1.064 16.183 16.183 0 0 1-8.049-9.708 6.211 6.211 0 0 1 1.534-6.187z" fill="#000000" data-original="#000000"></path><path d="m9.758 47.9.208-.978 16.71 3.554-.208.978zM51.083 49.277a97.667 97.667 0 0 0 2.921-36.86l-.994.11a96.639 96.639 0 0 1-2.892 36.485l-.322 1.173.965.265zM40.296 56.425l.867.497a62.311 62.311 0 0 0 8.09-27.004l.262-4.234-.998-.062-.262 4.234a61.31 61.31 0 0 1-7.959 26.568z" fill="#000000" data-original="#000000"></path></g></svg>