<svg xmlns="http://www.w3.org/2000/svg" version="1.1" xmlns:xlink="http://www.w3.org/1999/xlink" xmlns:svgjs="http://svgjs.com/svgjs" width="512" height="512" x="0" y="0" viewBox="0 0 511.996 511.996" style="enable-background:new 0 0 512 512" xml:space="preserve" class=""><g><path d="M28.568 282.871c.19-2.87 1.39-5.75 3.8-8.12 21.17-20.71 56.52-51.51 96.54-70.77 22.91-11.02 46.35-2.66 67.08 12.75M177.688 480.661H18.518c-6.82 0-12-6.14-10.86-12.87 2.59-15.29 9.66-24.08 15.85-29 6.3-5.01 9.12-13.18 7.73-21.11-4.81-27.6-6.42-56.29-6.08-83.99M183.234 333.687H19.176c-6.084 0-11.017-4.932-11.017-11.017v-28.78c0-6.084 4.932-11.017 11.017-11.017h166.312M284.808 59.301c12.25-8.15 25.25-15.79 38.72-22.27 54.42-26.19 111.52 44.31 137.28 82.3 2.15 3.17 2.83 6.71 2.36 10.02M210.088 129.351c-.61-4.21.61-8.72 4.2-12.23 11.35-11.11 26.32-24.79 43.74-38.43" style="stroke-width:15;stroke-linecap:round;stroke-linejoin:round;stroke-miterlimit:10;" fill="none" stroke="#000000" stroke-width="15" stroke-linecap="round" stroke-linejoin="round" stroke-miterlimit="10" data-original="#000000"></path><path d="M184.688 363.681c-3.28-78.37 12.07-154.74 18.8-183.84M467.748 179.841c8.29 35.87 29.68 143.52 13.16 238.24-1.38 7.88 1.43 16 7.68 20.98 6.15 4.89 13.17 13.62 15.75 28.81 1.14 6.69-4.02 12.79-10.8 12.79h-315.85c-6.77 0-11.93-6.1-10.79-12.79 2.58-15.19 9.59-23.92 15.74-28.81 6.26-4.98 9.07-13.1 7.69-20.98-1.23-7.04-2.24-14.15-3.07-21.29M353.616 129.351H196.434c-6.045 0-10.946 4.901-10.946 10.947v28.595c0 6.046 4.901 10.947 10.946 10.947H474.8c6.045 0 10.946-4.901 10.946-10.947v-28.595c0-6.046-4.901-10.947-10.946-10.947h-88.022" style="stroke-width:15;stroke-linecap:round;stroke-linejoin:round;stroke-miterlimit:10;" fill="none" stroke="#000000" stroke-width="15" stroke-linecap="round" stroke-linejoin="round" stroke-miterlimit="10" data-original="#000000"></path><path d="M349.112 374.108a4.493 4.493 0 0 0 0-3.984c-5.527-11.144-17.018-18.807-30.301-18.807-13.283 0-24.774 7.662-30.301 18.807a4.493 4.493 0 0 0 0 3.984c5.527 11.145 17.018 18.807 30.301 18.807 13.283-.001 24.774-7.663 30.301-18.807z" style="stroke-width:15;stroke-linecap:round;stroke-linejoin:round;stroke-miterlimit:10;" fill="none" stroke="#000000" stroke-width="15" stroke-linecap="round" stroke-linejoin="round" stroke-miterlimit="10" data-original="#000000"></path><path d="M282.055 307.051a4.493 4.493 0 0 1 3.984 0c11.144 5.527 18.807 17.018 18.807 30.301 0 13.283-7.662 24.774-18.807 30.301a4.493 4.493 0 0 1-3.984 0c-11.145-5.527-18.807-17.018-18.807-30.301.001-13.283 7.663-24.774 18.807-30.301zM395.701 327.519a4.493 4.493 0 0 0 0-3.984c-5.527-11.144-17.018-18.807-30.301-18.807-13.283 0-24.774 7.662-30.301 18.807a4.493 4.493 0 0 0 0 3.984c5.527 11.145 17.018 18.807 30.301 18.807 13.283 0 24.774-7.662 30.301-18.807z" style="stroke-width:15;stroke-linecap:round;stroke-linejoin:round;stroke-miterlimit:10;" fill="none" stroke="#000000" stroke-width="15" stroke-linecap="round" stroke-linejoin="round" stroke-miterlimit="10" data-original="#000000"></path><path d="M328.644 260.462a4.493 4.493 0 0 1 3.984 0c11.144 5.527 18.807 17.018 18.807 30.301 0 13.283-7.662 24.774-18.807 30.301a4.493 4.493 0 0 1-3.984 0c-11.145-5.527-18.807-17.018-18.807-30.301 0-13.283 7.662-24.774 18.807-30.301zM413.335 239.977a4.493 4.493 0 0 1 2.817 2.817c3.972 11.788 1.265 25.332-8.127 34.724-9.392 9.392-22.936 12.1-34.724 8.127a4.493 4.493 0 0 1-2.817-2.817c-3.972-11.788-1.265-25.332 8.127-34.724s22.936-12.1 34.724-8.127zM371.25 284.879 253.311 402.818M488.592 439.057h-71.603c-7.015 0-12.702-5.687-12.702-12.702v0c0-7.015 5.687-12.702 12.702-12.702M362.449 439.057h-43.638M333.809 66.639v-.069M353.844 81.154v-.07M279.857 102.215v-.07M408.82 102.215v-.07" style="stroke-width:15;stroke-linecap:round;stroke-linejoin:round;stroke-miterlimit:10;" fill="none" stroke="#000000" stroke-width="15" stroke-linecap="round" stroke-linejoin="round" stroke-miterlimit="10" data-original="#000000"></path></g></svg>