<svg xmlns="http://www.w3.org/2000/svg" version="1.1" xmlns:xlink="http://www.w3.org/1999/xlink" xmlns:svgjs="http://svgjs.com/svgjs" width="512" height="512" x="0" y="0" viewBox="0 0 508.402 508.402" style="enable-background:new 0 0 512 512" xml:space="preserve" class=""><g><path d="M70.185 218.566a7.473 7.473 0 0 0 5.288 2.181 7.5 7.5 0 0 0 5.288-12.818 381.211 381.211 0 0 1-54.738-68.701c-9.964-15.994-12.968-34.386-9.843-51.612 21.046 46.12 52.131 86.729 92.392 120.701a7.468 7.468 0 0 0 4.833 1.768 7.483 7.483 0 0 0 5.736-2.664 7.498 7.498 0 0 0-.896-10.568c-38.588-32.561-68.356-71.45-88.476-115.587L23.238 66.94a72.496 72.496 0 0 1 20.093-24.1l4.928 10.328c36.484 76.458 100.45 136.535 180.114 169.162.93.381 1.893.562 2.839.562a7.502 7.502 0 0 0 2.845-14.443C157.85 177.237 96.673 119.796 61.798 46.708l-5.637-11.813a72.447 72.447 0 0 1 15.563-5.457c11.043 22.987 24.741 44.619 40.763 64.344a7.484 7.484 0 0 0 5.826 2.771 7.5 7.5 0 0 0 5.817-12.229c-14.192-17.471-26.463-36.519-36.58-56.711 24.519-.113 48.552 12.089 62.441 34.384 26.077 41.858 64.044 74.03 109.798 93.04 23.343 9.699 47.818 15.577 72.746 17.471a7.5 7.5 0 0 0 1.137-14.957c-23.336-1.773-46.257-7.279-68.127-16.366-42.852-17.804-78.407-47.929-102.822-87.12C137.055 12.868 82.658.232 41.459 25.896.261 51.563-12.375 105.961 13.291 147.158a396.262 396.262 0 0 0 56.894 71.408z" fill="#000000" data-original="#000000" class=""></path><path d="M506.097 218.152c-11.011-47.269-58.429-76.772-105.704-65.763a222.984 222.984 0 0 1-35.42 5.291c-4.133.279-7.256 3.856-6.977 7.989s3.868 7.265 7.989 6.977a237.93 237.93 0 0 0 37.811-5.647c22.9-5.333 45.83.808 62.775 14.635l-10.124 3.484c-54.716 16.875-112.871 18.312-168.195 4.157-54.257-13.881-103.774-42.136-143.2-81.708a7.498 7.498 0 0 0-10.606-.02 7.5 7.5 0 0 0-.02 10.606c41.33 41.484 93.237 71.103 150.108 85.653a324.314 324.314 0 0 0 80.391 10.12c32.385 0 64.762-4.846 96.062-14.512.076-.023.152-.048.228-.074l16.936-5.829a72.393 72.393 0 0 1 9.545 16.368l-28.219 9.463a339.139 339.139 0 0 1-71.612 13.333 7.5 7.5 0 0 0-6.906 8.05 7.5 7.5 0 0 0 8.05 6.907 354.174 354.174 0 0 0 74.902-13.958c.075-.022.15-.046.224-.071l27.908-9.359c2.952 15.212.919 30.334-5.016 43.602l-34.722 8.799a394.953 394.953 0 0 1-27.237 5.026 7.498 7.498 0 0 0-6.312 8.523 7.502 7.502 0 0 0 8.524 6.313 409.24 409.24 0 0 0 28.388-5.243c.072-.016.144-.033.215-.051l19.279-4.885c-9.712 11.071-22.826 19.332-38.232 22.921-.278.065-.557.125-.835.185-.292.063-.585.127-.877.194a7.5 7.5 0 1 0 3.336 14.624l.714-.157c.356-.077.712-.154 1.066-.237 47.273-11.014 76.774-58.433 65.763-105.706zM273.256 359.561c0-75.12-61.115-136.235-136.235-136.235S.787 284.441.787 359.561s61.115 136.235 136.235 136.235 136.234-61.115 136.234-136.235zM137.021 480.796c-66.849 0-121.235-54.386-121.235-121.235s54.386-121.235 121.235-121.235 121.235 54.386 121.235 121.235-54.386 121.235-121.235 121.235z" fill="#000000" data-original="#000000" class=""></path><path d="M234.618 360.562a7.5 7.5 0 0 0 6.992-7.976c-3.61-54.869-49.551-97.85-104.588-97.85-57.801 0-104.825 47.024-104.825 104.825s47.024 104.825 104.825 104.825c47.171 0 88.763-31.756 101.144-77.226a7.5 7.5 0 0 0-14.473-3.941c-10.608 38.958-46.248 66.166-86.671 66.166-49.53 0-89.825-40.295-89.825-89.825s40.295-89.825 89.825-89.825c47.162 0 86.528 36.824 89.621 83.834.271 4.134 3.839 7.251 7.975 6.993z" fill="#000000" data-original="#000000" class=""></path><path d="M137.021 281.494c-12.236 0-22.191 9.955-22.191 22.191 0 2.239 0 9.052 12.93 25.603 2.242 2.87 5.618 4.515 9.261 4.515s7.019-1.646 9.261-4.516c12.93-16.55 12.93-23.363 12.93-25.602.001-12.236-9.954-22.191-22.191-22.191zm0 35.171c-5.705-7.837-7.146-11.981-7.191-12.979 0-3.965 3.226-7.191 7.191-7.191 3.961 0 7.185 3.219 7.191 7.179-.05 1.024-1.497 5.169-7.191 12.991zM159.001 346.13a11.677 11.677 0 0 0 8.682 5.547c5.075.585 9.257.817 12.711.817 10.748 0 14.431-2.25 15.877-3.134 10.44-6.38 13.744-20.065 7.364-30.507-6.381-10.442-20.067-13.745-30.507-7.363-1.91 1.167-7.724 4.72-15.104 24.383a11.677 11.677 0 0 0 .977 10.257zm21.958-21.847c3.384-2.059 7.811-.987 9.876 2.392 2.068 3.384.997 7.819-2.371 9.877-.889.49-5.178 1.422-14.84.641 3.705-8.937 6.488-12.333 7.335-12.91zM100.915 311.49c-10.441-6.38-24.127-3.077-30.507 7.363-6.381 10.441-3.078 24.127 7.364 30.508 1.446.883 5.127 3.133 15.877 3.133 3.454 0 7.638-.232 12.71-.817 3.618-.416 6.783-2.438 8.683-5.547s2.256-6.848.976-10.257c-7.379-19.663-13.192-23.216-15.103-24.383zm-15.321 25.072c-3.384-2.068-4.454-6.503-2.387-9.887a7.193 7.193 0 0 1 9.876-2.392c.848.577 3.63 3.972 7.335 12.91-9.662.783-13.949-.148-14.824-.631zM137.021 437.628c12.236 0 22.191-9.955 22.191-22.191 0-2.239 0-9.051-12.93-25.603-2.242-2.87-5.618-4.515-9.261-4.515s-7.019 1.646-9.261 4.516c-12.93 16.551-12.93 23.363-12.93 25.602 0 12.236 9.955 22.191 22.191 22.191zm0-35.17c5.694 7.823 7.141 11.967 7.191 12.991-.006 3.96-3.23 7.18-7.191 7.18-3.965 0-7.191-3.226-7.192-7.174.046-1.014 1.487-5.16 7.192-12.997zM173.127 407.632c.001 0 .001.001 0 0a22.06 22.06 0 0 0 11.535 3.25c7.481 0 14.794-3.777 18.973-10.615 6.38-10.441 3.076-24.126-7.365-30.507-1.91-1.167-7.725-4.72-28.587-2.316A11.68 11.68 0 0 0 159 372.99a11.685 11.685 0 0 0-.977 10.259c7.38 19.663 13.194 23.216 15.104 24.383zm15.322-25.072c3.384 2.068 4.455 6.503 2.387 9.887-2.066 3.38-6.495 4.453-9.876 2.393-.848-.578-3.63-3.973-7.335-12.911 9.662-.78 13.95.15 14.824.631zM70.408 400.269c4.179 6.838 11.49 10.614 18.972 10.614a22.06 22.06 0 0 0 11.534-3.25h.001c1.91-1.167 7.724-4.72 15.103-24.382 1.28-3.41.924-7.149-.976-10.258s-5.065-5.131-8.683-5.547c-20.866-2.404-26.677 1.149-28.588 2.317-10.441 6.379-13.744 20.064-7.363 30.506zm15.17-17.699c.644-.355 3.069-.941 8.028-.941 1.89 0 4.147.085 6.813.3-3.706 8.938-6.488 12.334-7.335 12.911-3.381 2.059-7.81.986-9.876-2.393-2.068-3.384-.998-7.819 2.37-9.877zM283.97 223.326c-16.09 0-31.845 2.78-46.825 8.263-3.89 1.423-5.889 5.731-4.465 9.621s5.732 5.89 9.621 4.465c13.324-4.876 27.344-7.349 41.67-7.349 66.849 0 121.235 54.386 121.235 121.235S350.819 480.796 283.97 480.796c-14.326 0-28.346-2.473-41.669-7.349a7.501 7.501 0 0 0-5.156 14.086c14.98 5.483 30.734 8.263 46.824 8.263 75.12 0 136.235-61.115 136.235-136.235S359.09 223.326 283.97 223.326z" fill="#000000" data-original="#000000" class=""></path><path d="M265.457 447.473a7.5 7.5 0 0 0-3.074 14.682 105.56 105.56 0 0 0 21.587 2.231c57.801 0 104.825-47.024 104.825-104.825S341.77 254.736 283.97 254.736c-7.255 0-14.519.751-21.588 2.231a7.5 7.5 0 0 0 3.075 14.681 90.437 90.437 0 0 1 18.513-1.913c49.529 0 89.825 40.295 89.825 89.825 0 49.529-40.295 89.825-89.825 89.825a90.436 90.436 0 0 1-18.513-1.912z" fill="#000000" data-original="#000000" class=""></path><path d="M314.631 351.677c5.075.585 9.257.817 12.711.817 10.748 0 14.431-2.25 15.876-3.134 10.441-6.381 13.745-20.066 7.364-30.507-6.381-10.442-20.066-13.745-30.507-7.363-1.91 1.167-7.724 4.72-15.104 24.383a11.68 11.68 0 0 0 .977 10.257 11.68 11.68 0 0 0 8.683 5.547zm13.277-27.394c3.384-2.059 7.811-.987 9.876 2.392 2.067 3.384.997 7.819-2.372 9.877-.889.49-5.178 1.422-14.84.641 3.706-8.937 6.488-12.333 7.336-12.91zM304.972 383.25c7.379 19.663 13.193 23.215 15.104 24.383a22.054 22.054 0 0 0 11.535 3.25c7.481 0 14.794-3.777 18.972-10.614 6.381-10.441 3.077-24.126-7.364-30.508-1.911-1.167-7.725-4.72-28.587-2.316a11.68 11.68 0 0 0-8.683 5.546 11.685 11.685 0 0 0-.977 10.259zm30.425-.69c3.384 2.068 4.455 6.503 2.387 9.887a7.199 7.199 0 0 1-9.876 2.393c-.848-.577-3.63-3.973-7.335-12.911 9.663-.78 13.95.15 14.824.631z" fill="#000000" data-original="#000000" class=""></path></g></svg>