<svg xmlns="http://www.w3.org/2000/svg" version="1.1" xmlns:xlink="http://www.w3.org/1999/xlink" xmlns:svgjs="http://svgjs.com/svgjs" width="512" height="512" x="0" y="0" viewBox="0 0 60 60" style="enable-background:new 0 0 512 512" xml:space="preserve" class=""><g><g fill="#000" fill-rule="nonzero"><path d="M39.9 1a68.321 68.321 0 0 0-14.867 3.39A31.141 31.141 0 0 0 20 4C10.045 4 0 12.967 0 33c0 5.5 2.349 27 9 27 3.311 0 4.212-2.716 5.168-5.591.843-2.537 1.8-5.412 4.473-7.641 1.593-1.328 4.112-2.169 6.778-3.06 5.568-1.859 12.225-4.09 14.643-11.869 8.013-2.731 9.743-8.536 11-12.8.285-.968.554-1.882.866-2.662.931-2.33 2.876-3.995 4.591-5.465C58.388 9.308 60 7.926 60 6a2.241 2.241 0 0 0-.859-1.647C56.607 2.06 48.274.167 39.9 1zM24.785 41.812c-2.849.951-5.542 1.851-7.426 3.42-3.112 2.594-4.209 5.894-5.089 8.546C11.252 56.842 10.706 58 9 58c-3.609 0-7-15.6-7-25C2 14.349 11.04 6 20 6c8.668 0 19 3.3 19 19 0 12.064-7.552 14.586-14.215 16.812zM55.219 9.388c-1.8 1.54-4.033 3.455-5.148 6.241-.346.868-.629 1.826-.927 2.839-1.182 4.012-2.522 8.511-8.514 11.024.254-1.484.378-2.987.37-4.492 0-10.255-4.285-17.012-12.242-19.693A62.759 62.759 0 0 1 40.1 3c9.693-.977 17.412 1.877 17.9 3 0 1.006-1.289 2.11-2.781 3.388z" fill="#000000" data-original="#000000"></path><path d="M5.529 28.017a1 1 0 0 0-1.167.8c-.123.655-.24 1.331-.35 2.028a1 1 0 1 0 1.975.311c.107-.678.22-1.335.339-1.972a1 1 0 0 0-.797-1.167zM20 8C16.887 8 9.221 9.632 5.268 24.747a1 1 0 0 0 1.935.506C10.8 11.486 17.352 10 20 10a1 1 0 0 0 0-2z" fill="#000000" data-original="#000000"></path></g></g></svg>