<svg xmlns="http://www.w3.org/2000/svg" version="1.1" xmlns:xlink="http://www.w3.org/1999/xlink" xmlns:svgjs="http://svgjs.com/svgjs" width="512" height="512" x="0" y="0" viewBox="0 0 53 53" style="enable-background:new 0 0 512 512" xml:space="preserve" class=""><g><path d="M40.9 7.3c.8-.5 1.3-1.3 1.4-2.2s-.2-1.8-.9-2.4c-.3-.3-.7-.5-1.1-.7-.4-.1-.9-.2-1.2-.1l-2 .1c-2.7.2-5.5.3-8.2.5 2.7.2 5.5.3 8.2.5l2 .1c.6 0 1 .2 1.4.6.3.4.5.9.4 1.3-.1.5-.4.9-.8 1.1-.2.1-.4.2-.6.2h-1C37 5.9 14.1 6 14 6h-.4c-.1 0-.2 0-.3-.1-.2-.1-.4-.2-.5-.3-.7-.6-.6-1.8.2-2.2.2-.1.4-.2.6-.2.1 0-.5 0 7.1-.3 2.7-.2 5.5-.3 8.2-.5-2.7-.2-5.5-.3-8.2-.5-.7 0-6.7-.3-7.2-.2-.5 0-.9.2-1.3.4-.8.4-1.4 1.3-1.5 2.2s.2 1.9.8 2.6c.3.3.7.6 1.2.8.2.1.5.1.7.2h.1l-2.2 6.3v.1c-.3 16.2-.3 25.6-.4 30.5v1.6c.2 1.8 1.3 3.5 3 4.4.6.3 1.2.5 1.8.5.7.1 1.1 0 1.6 0h20c.6-.1 1.2-.3 1.8-.5 1.7-.8 2.8-2.4 3-4.4v-1.6c0-4.7-.1-14.2-.4-30.5v-.1l-2.2-6.4h.1c.5-.1.9-.3 1.3-.5zm-28.5 7.1c2.3.4 4.5.6 6.8.7 2.4.2 4.9.2 7.3.2s4.9-.1 7.3-.2c2.3-.1 4.5-.3 6.8-.7-.3 15.4-.3 25-.4 27.7-2.1-.3-4.3-.5-6.4-.6-2.4-.2-4.9-.2-7.3-.2s-4.9.1-7.3.2c-2.1.1-4.3.3-6.4.6 0-2.9-.1-12.2-.4-27.7zm21.5-.9c-2.4-.2-4.9-.2-7.3-.2s-4.9.1-7.3.2c-2.2.1-4.5.3-6.7.7l1.8-6.4c18.3.2 22.7 0 24.1-.1h.2l1.9 6.5c-2.2-.3-4.4-.5-6.7-.7zm6.4 32.7c0 .4-.2.8-.3 1.1-.3.7-.9 1.3-1.7 1.7-.4.2-.7.3-1.1.3H16c-.4 0-.8-.2-1.1-.3-.7-.3-1.3-.9-1.7-1.7-.2-.4-.3-.7-.3-1.1v-3.8c2.1.3 4.3.5 6.4.6 2.4.2 4.9.2 7.3.2s4.9-.1 7.3-.2c2.1-.1 4.3-.3 6.4-.6v2.4z" fill="#000000" data-original="#000000"></path><path d="M26.6 36.5c2.1 0 4.1-.9 5.5-2.4s2.2-3.5 2.1-5.5-1-3.9-2.5-5.2-3.4-1.9-5.2-1.7c1.8.2 3.4 1.1 4.5 2.4s1.7 2.9 1.6 4.5-.8 3.1-1.9 4.2-2.7 1.7-4.2 1.7c-1.6 0-3.1-.6-4.2-1.7-1.2-1.1-1.8-2.6-1.9-4.2s.5-3.3 1.6-4.5c1.1-1.3 2.7-2.1 4.5-2.4-1.8-.2-3.8.4-5.2 1.7-1.5 1.3-2.4 3.2-2.5 5.2s.7 4.1 2.1 5.6c1.5 1.5 3.6 2.3 5.7 2.3z" fill="#000000" data-original="#000000"></path></g></svg>