<svg xmlns="http://www.w3.org/2000/svg" version="1.1" xmlns:xlink="http://www.w3.org/1999/xlink" xmlns:svgjs="http://svgjs.com/svgjs" width="512" height="512" x="0" y="0" viewBox="0 0 682.667 682.667" style="enable-background:new 0 0 512 512" xml:space="preserve" class=""><g><defs><clipPath id="a" clipPathUnits="userSpaceOnUse"><path d="M0 512h512V0H0Z" fill="#000000" data-original="#000000"></path></clipPath></defs><g clip-path="url(#a)" transform="matrix(1.33333 0 0 -1.33333 0 682.667)"><path d="M0 0v1.524c0 12.872-10.434 23.305-23.305 23.305h-46.149c-12.871 0-23.305-10.433-23.305-23.305V-22.53c0-6.661-8.054-9.997-12.763-5.287l-1.707 1.707c-7.248 7.247-18.997 7.247-26.244 0l-9.549-9.55c-9.488-9.487-9.618-24.828-.292-34.475l39.287-40.642a51.652 51.652 0 0 0 14.514-35.9v-58.113c0-4.574 1.006-9.092 2.947-13.234l15.208-32.462a31.202 31.202 0 0 0 2.946-13.235c0-17.229-13.968-31.197-31.197-31.197-15.287 0-27.68 12.393-27.68 27.68v112.345c0 10.694-8.669 19.362-19.361 19.362h-25.998c-10.694 0-19.362-8.668-19.362-19.362v-21.156c0-6.528-7.84-9.856-12.537-5.322-6.104 5.894-15.807 5.809-21.807-.191l-10.125-10.125c-7.602-7.602-7.584-19.931.039-27.511l48.798-48.524a51.231 51.231 0 0 0 15.109-36.329 51.23 51.23 0 0 1 22.772-42.599l31.073-20.76a51.033 51.033 0 0 0 22.683-42.434v-43.333a7.83 7.83 0 0 1 4.783-7.211A149.745 149.745 0 0 1-17.819-471.4" style="stroke-width:15;stroke-linecap:round;stroke-linejoin:round;stroke-miterlimit:10;stroke-dasharray:none;stroke-opacity:1" transform="translate(329.522 479.67)" fill="none" stroke="#000000" stroke-width="15" stroke-linecap="round" stroke-linejoin="round" stroke-miterlimit="10" stroke-dasharray="none" stroke-opacity="" data-original="#000000"></path><path d="M0 0a150.686 150.686 0 0 1 8.502 3.278l.118.051a7.828 7.828 0 0 1 4.79 7.213V38.19A49.602 49.602 0 0 0 26.6 71.874c8.995 9.725 7.574 25.101-3.05 33.012-10.02 7.462-11.951 21.7-4.281 31.561l51.613 66.36c11.211 14.415 9.934 34.922-2.979 47.835l-16.358 16.357c-14.279 14.28-37.481 14.119-51.561-.357l-16.539-17.005c-5.632-5.791-15.451-1.791-15.434 6.287v.001a95.132 95.132 0 0 0 30.222 69.346l.929.867c9.457 8.827 9.24 23.542-.25 31.892l-.497.438a44.29 44.29 0 0 0-15.032 33.251v36.995" style="stroke-width:15;stroke-linecap:round;stroke-linejoin:round;stroke-miterlimit:10;stroke-dasharray:none;stroke-opacity:1" transform="translate(346.139 15.957)" fill="none" stroke="#000000" stroke-width="15" stroke-linecap="round" stroke-linejoin="round" stroke-miterlimit="10" stroke-dasharray="none" stroke-opacity="" data-original="#000000"></path><path d="M0 0a147.163 147.163 0 0 1 92.759-24.919" style="stroke-width:15;stroke-linecap:round;stroke-linejoin:round;stroke-miterlimit:10;stroke-dasharray:none;stroke-opacity:1" transform="translate(236.763 461.383)" fill="none" stroke="#000000" stroke-width="15" stroke-linecap="round" stroke-linejoin="round" stroke-miterlimit="10" stroke-dasharray="none" stroke-opacity="" data-original="#000000"></path><path d="M0 0a284.564 284.564 0 0 0 102.209 30.928" style="stroke-width:15;stroke-linecap:round;stroke-linejoin:round;stroke-miterlimit:10;stroke-dasharray:none;stroke-opacity:1" transform="translate(228.9 364.998)" fill="none" stroke="#000000" stroke-width="15" stroke-linecap="round" stroke-linejoin="round" stroke-miterlimit="10" stroke-dasharray="none" stroke-opacity="" data-original="#000000"></path><path d="M0 0a223.888 223.888 0 0 0 93.715 9.952" style="stroke-width:15;stroke-linecap:round;stroke-linejoin:round;stroke-miterlimit:10;stroke-dasharray:none;stroke-opacity:1" transform="translate(240.009 319.531)" fill="none" stroke="#000000" stroke-width="15" stroke-linecap="round" stroke-linejoin="round" stroke-miterlimit="10" stroke-dasharray="none" stroke-opacity="" data-original="#000000"></path><path d="m0 0 21.887 2.548a318.593 318.593 0 0 1 46.257 8.893l7.698 2.081" style="stroke-width:15;stroke-linecap:round;stroke-linejoin:round;stroke-miterlimit:10;stroke-dasharray:none;stroke-opacity:1" transform="translate(240.009 276.073)" fill="none" stroke="#000000" stroke-width="15" stroke-linecap="round" stroke-linejoin="round" stroke-miterlimit="10" stroke-dasharray="none" stroke-opacity="" data-original="#000000"></path><path d="M0 0a301.005 301.005 0 0 1 76.753-57.091" style="stroke-width:15;stroke-linecap:round;stroke-linejoin:round;stroke-miterlimit:10;stroke-dasharray:none;stroke-opacity:1" transform="translate(342.156 278.52)" fill="none" stroke="#000000" stroke-width="15" stroke-linecap="round" stroke-linejoin="round" stroke-miterlimit="10" stroke-dasharray="none" stroke-opacity="" data-original="#000000"></path><path d="M0 0a335.618 335.618 0 0 0 141.597-26.521" style="stroke-width:15;stroke-linecap:round;stroke-linejoin:round;stroke-miterlimit:10;stroke-dasharray:none;stroke-opacity:1" transform="translate(259.733 225.112)" fill="none" stroke="#000000" stroke-width="15" stroke-linecap="round" stroke-linejoin="round" stroke-miterlimit="10" stroke-dasharray="none" stroke-opacity="" data-original="#000000"></path><path d="m0 0 59.993 7.713" style="stroke-width:15;stroke-linecap:round;stroke-linejoin:round;stroke-miterlimit:10;stroke-dasharray:none;stroke-opacity:1" transform="translate(142.24 211.588)" fill="none" stroke="#000000" stroke-width="15" stroke-linecap="round" stroke-linejoin="round" stroke-miterlimit="10" stroke-dasharray="none" stroke-opacity="" data-original="#000000"></path><path d="m0 0 1.005-.101a234.392 234.392 0 0 1 60.526 1.807l3.19.513" style="stroke-width:15;stroke-linecap:round;stroke-linejoin:round;stroke-miterlimit:10;stroke-dasharray:none;stroke-opacity:1" transform="translate(137.512 316.045)" fill="none" stroke="#000000" stroke-width="15" stroke-linecap="round" stroke-linejoin="round" stroke-miterlimit="10" stroke-dasharray="none" stroke-opacity="" data-original="#000000"></path><path d="M0 0a202.01 202.01 0 0 1 90.612 32.956l4.04 2.704" style="stroke-width:15;stroke-linecap:round;stroke-linejoin:round;stroke-miterlimit:10;stroke-dasharray:none;stroke-opacity:1" transform="translate(107.58 246.056)" fill="none" stroke="#000000" stroke-width="15" stroke-linecap="round" stroke-linejoin="round" stroke-miterlimit="10" stroke-dasharray="none" stroke-opacity="" data-original="#000000"></path><path d="M0 0a787.069 787.069 0 0 0 112.728-2.329" style="stroke-width:15;stroke-linecap:round;stroke-linejoin:round;stroke-miterlimit:10;stroke-dasharray:none;stroke-opacity:1" transform="translate(253.294 155.523)" fill="none" stroke="#000000" stroke-width="15" stroke-linecap="round" stroke-linejoin="round" stroke-miterlimit="10" stroke-dasharray="none" stroke-opacity="" data-original="#000000"></path><path d="M0 0a786.716 786.716 0 0 0 52.363 6.779" style="stroke-width:15;stroke-linecap:round;stroke-linejoin:round;stroke-miterlimit:10;stroke-dasharray:none;stroke-opacity:1" transform="translate(166.274 146.205)" fill="none" stroke="#000000" stroke-width="15" stroke-linecap="round" stroke-linejoin="round" stroke-miterlimit="10" stroke-dasharray="none" stroke-opacity="" data-original="#000000"></path><path d="M0 0a659.747 659.747 0 0 1-136.533-38.051" style="stroke-width:15;stroke-linecap:round;stroke-linejoin:round;stroke-miterlimit:10;stroke-dasharray:none;stroke-opacity:1" transform="translate(367.986 122.244)" fill="none" stroke="#000000" stroke-width="15" stroke-linecap="round" stroke-linejoin="round" stroke-miterlimit="10" stroke-dasharray="none" stroke-opacity="" data-original="#000000"></path><path d="M0 0a616.02 616.02 0 0 1 126.224 5.577" style="stroke-width:15;stroke-linecap:round;stroke-linejoin:round;stroke-miterlimit:10;stroke-dasharray:none;stroke-opacity:1" transform="translate(233.517 52.933)" fill="none" stroke="#000000" stroke-width="15" stroke-linecap="round" stroke-linejoin="round" stroke-miterlimit="10" stroke-dasharray="none" stroke-opacity="" data-original="#000000"></path></g></g></svg>