<svg xmlns="http://www.w3.org/2000/svg" version="1.1" xmlns:xlink="http://www.w3.org/1999/xlink" xmlns:svgjs="http://svgjs.com/svgjs" width="512" height="512" x="0" y="0" viewBox="0 0 450 450" style="enable-background:new 0 0 512 512" xml:space="preserve" class=""><g><path d="M225.3 261.7h-.4c-1.7-.1-41.7-3.9-84-27.8-25-14.1-45.5-32.2-61-54C60.5 152.8 49 120 45.6 82.5c-.1-1.5.4-2.9 1.4-4s2.5-1.6 4-1.4c37.5 3.3 70.3 14.8 97.4 34.2 21.7 15.5 39.9 36 54 61 23.9 42.3 27.6 82.3 27.8 84 .1 1.5-.4 2.9-1.4 4-.9.9-2.2 1.4-3.5 1.4zM56.2 87.7c7 61.6 37 107.8 89.2 137.4 31 17.5 61.3 23.8 74 25.9-2-12.7-8.3-43.1-25.9-74-29.5-52.3-75.7-82.3-137.3-89.3z" fill="#000000" data-original="#000000" class=""></path><path d="M225.3 261.7c-1.3 0-2.6-.5-3.5-1.5-1-1-1.6-2.5-1.4-4 .1-1.7 3.9-41.7 27.8-84 14.1-25 32.2-45.5 54-61 27.2-19.4 59.9-30.9 97.4-34.2 1.5-.1 2.9.4 4 1.4 1 1 1.6 2.5 1.4 4-3.3 37.5-14.8 70.3-34.2 97.4-15.5 21.7-36 39.9-61 54-42.3 23.9-82.3 27.6-84 27.8-.2.1-.4.1-.5.1zm169-174c-61.6 7-107.8 37-137.4 89.2-17.5 31-23.8 61.3-25.9 74 12.7-2 43.1-8.3 74-25.9 52.3-29.5 82.3-75.7 89.3-137.3z" fill="#000000" data-original="#000000" class=""></path><path d="M270.1 153.5h-.6c-2.7-.3-4.7-2.8-4.4-5.5 5.2-46.7-8.2-90.4-39.9-130.3-31.6 39.8-45 83.6-39.9 130.3.3 2.7-1.7 5.2-4.4 5.5s-5.2-1.7-5.5-4.4c-5.7-51.3 9.8-99.2 46-142.5.9-1.1 2.4-1.8 3.8-1.8 1.5 0 2.9.7 3.8 1.8 36.2 43.2 51.7 91.2 46 142.5-.2 2.5-2.4 4.4-4.9 4.4z" fill="#000000" data-original="#000000" class=""></path><path d="M328.6 106.2h-.3c-2.8-.2-4.9-2.5-4.7-5.3 1.3-21-1.4-43.1-8-65.6-19.8 11.1-36.7 24.5-50.4 39.9-1.8 2.1-5 2.3-7.1.4-2.1-1.8-2.3-5-.4-7.1 15.6-17.6 35.3-32.7 58.5-45 1.3-.7 2.9-.8 4.2-.2 1.4.6 2.4 1.7 2.9 3.1 8.2 25.7 11.6 50.9 10.2 75-.1 2.8-2.3 4.8-4.9 4.8zM120.2 105.4c-2.6 0-4.8-2-5-4.7-1.4-23.5 1.8-48.1 9.5-73.2.4-1.4 1.5-2.6 2.8-3.1s2.9-.5 4.2.2c24 12.4 44.2 27.8 60.2 45.8 1.8 2.1 1.6 5.2-.4 7.1-2.1 1.8-5.2 1.6-7.1-.4-14-15.8-31.4-29.5-52-40.7-6.1 21.9-8.6 43.3-7.4 63.8.2 2.8-1.9 5.1-4.7 5.3.1-.1 0-.1-.1-.1zM225.1 446.7c-1.7 0-3.3-.9-4.2-2.3l-23.3-36.3c-.5-.8-.8-1.7-.8-2.7v-153c0-2.8 2.2-5 5-5s5 2.2 5 5V404l18.3 28.6 18.6-28.6V252.4c0-2.8 2.2-5 5-5s5 2.2 5 5v153c0 1-.3 1.9-.8 2.7l-23.6 36.3c-1 1.5-2.5 2.3-4.2 2.3z" fill="#000000" data-original="#000000" class=""></path><path d="M248.7 410.4c-.4 0-.9-.1-1.3-.2-2.3-.6-3.8-2.7-3.7-5.1 0-.8 1.1-21.1 9-47.1 7.4-24.1 22.4-57.8 52-81.5 33.2-26.5 77.3-35.2 131-25.7 2.5.4 4.2 2.7 4.1 5.2s-2.1 4.5-4.6 4.7c-.3 0-28.1 2.4-64.3 21.6C337.5 300 290 336.2 253 407.6c-.7 1.8-2.4 2.8-4.3 2.8zm146.9-153.2c-33.6 0-62 9.1-84.6 27.2-33.7 27-47.7 68.4-53.4 95.2 36-58.6 78.4-89.9 109.3-106.2 14.3-7.5 27.2-12.6 37.9-15.9-3.1-.3-6.2-.3-9.2-.3zM201.8 410.4c-1.8 0-3.6-1-4.4-2.7-37-71.4-84.5-107.6-117.9-125.3-36.2-19.2-64-21.6-64.3-21.6-2.5-.2-4.5-2.2-4.6-4.7s1.6-4.7 4.1-5.2c53.8-9.5 97.9-.8 131 25.7 29.6 23.7 44.6 57.4 52 81.5 8 26 9 46.2 9 47.1.1 2.3-1.4 4.5-3.7 5.1-.3.1-.8.1-1.2.1zm-156-153c10.7 3.4 23.6 8.4 37.9 15.9 30.9 16.3 73.3 47.6 109.3 106.2-5.8-26.8-19.8-68.2-53.5-95.1-24.7-19.8-56.1-28.8-93.7-27z" fill="#000000" data-original="#000000" class=""></path></g></svg>