<svg xmlns="http://www.w3.org/2000/svg" version="1.1" xmlns:xlink="http://www.w3.org/1999/xlink" xmlns:svgjs="http://svgjs.com/svgjs" width="512" height="512" x="0" y="0" viewBox="0 0 512 512" style="enable-background:new 0 0 512 512" xml:space="preserve" class=""><g><path d="M351.493 151.394a4 4 0 0 0-2.546-6.307c-24.976-4.309-50.733-5.683-76.055-5.683-39.478 0-95.477 4.967-138.067 28.628-33.996 18.886-59.918 51.933-74.965 95.57-6.73 19.519-11.23 40.046-12.585 60.666-.036.55.041 1.115.269 1.723a4.002 4.002 0 0 0 3.725 2.539l.106-.001c2.11-.01 34.446-.27 73.122-6.806 53.779-9.09 93.643-25.325 118.484-48.255 58.112-53.642 108.015-121.396 108.512-122.074zM67.425 266.207c10.036-29.105 30.551-68.552 71.286-91.182 39.656-22.031 91.951-27.53 134.301-27.53 4.88 0 9.629.073 14.21.202-26.028 9.531-73.127 27.244-107.108 42.69-39.417 17.917-94.532 68.425-117.065 89.973a231.935 231.935 0 0 1 4.376-14.153zm-7.915 28.745c8.779-8.659 78.508-76.644 123.914-97.282 37.355-16.979 90.768-36.753 114.068-45.201-13.56 19.165-45.522 61.24-82.076 87.825-42.158 30.66-135.238 68.498-159.641 78.169.541-5.242 1.624-13.482 3.735-23.511zm15.182 24.54c36.441-14.891 108.664-45.99 145.429-72.729 45.008-32.733 81.982-86.451 89.62-97.949 13.85.98 24.804 2.296 31.292 3.183-12.913 16.972-55.362 71.177-103.478 115.591-41.88 38.659-122.91 49.092-162.863 51.904zM445.236 95.82c-13.773-23.53-29.706-35.067-30.377-35.547a3.979 3.979 0 0 0-1.061-.54c-6.939-2.313-18.779-1.164-23.032 11.449a3.51 3.51 0 0 0-.058.173c-1.453 4.44-2.385 13.124-3.671 25.112-3.02 28.14-7.582 70.666-23.146 104.905-22.033 48.473-39.98 114.859-40.702 117.545-.066.23-.111.463-.135.699-.264 2.655 2.221 4.879 4.819 4.322 1.814-.368 29.441-6.162 59.65-23.505 14.846-8.522 29.065-19.138 40.67-31.749 10.669-11.595 19.785-24.906 25.665-39.572 3.236-8.072 5.975-16.783 7.604-25.337 9.531-50.032-3.563-86.322-16.226-107.955zm-74.061 108.864c14.961-32.915 20.03-72.641 23.139-101.087 3.141 30.119 6.313 75.572.798 103.147-6.335 31.673-40.961 75.701-59.414 97.398 6.805-23.171 20.152-65.743 35.477-99.458zm24.864 81.004a192.27 192.27 0 0 1-12.295 7.692c-17.253 9.933-33.913 16.005-44.818 19.344 17.942-20.674 56.905-68.791 64.029-104.411 8.624-43.116-2.78-124.815-4.317-135.367 2.969-7.413 9.724-6.395 12.077-5.782 1.827 1.404 8.367 6.693 15.96 15.946 1.048 10.306 8.492 85.787 4.413 110.261-6.671 40.025-31.291 85.536-35.049 92.317zm57.565-83.408c-5.347 28.073-19.616 52.162-42.541 71.917 9.159-18.548 23.003-50.034 27.916-79.511 3.428-20.563-.661-72.859-3.025-98.729.798 1.26 1.592 2.562 2.378 3.905 11.971 20.451 24.338 54.821 15.272 102.418zm-18.883 194.864-238.5-58.5a4.002 4.002 0 0 0-4.931 4.304c.095.903 2.475 22.411 15.06 46.438 11.684 22.306 34.71 50.917 78.05 60.548 10.369 2.305 20.51 3.295 30.284 3.295 30.749 0 57.865-9.806 76.998-19.371 27.204-13.603 44.109-29.245 44.815-29.904a4 4 0 0 0-1.776-6.81zm-148.585 44.98c-32.296-7.178-56.712-26.087-72.57-56.205-.272-.518-.539-1.031-.801-1.546 16.904 10.771 50.292 30.82 75.854 38.486 30.353 9.106 70.028 8.26 93.749 6.594-23.982 11.031-58.621 21.027-96.232 12.671zm114.895-22.472c-7.297.897-68.878 7.915-110.113-4.455-32.41-9.721-79.936-41.467-84.106-44.278-3.644-9.573-5.62-17.867-6.629-23.066l225.009 55.19c-5.128 4.101-13.434 10.267-24.161 16.609z" fill="#000000" data-original="#000000"></path></g></svg>