<svg xmlns="http://www.w3.org/2000/svg" version="1.1" xmlns:xlink="http://www.w3.org/1999/xlink" xmlns:svgjs="http://svgjs.com/svgjs" width="512" height="512" x="0" y="0" viewBox="0 0 511 511.998" style="enable-background:new 0 0 512 512" xml:space="preserve" class=""><g><path d="M456.43 178.352c.71-34.637-19.633-65.79-51.153-79.258-4.597-29.555-28.418-52.656-58.02-56.57a45.95 45.95 0 0 0-1.671-8.778C340.367 15.922 324.648 2.5 306.496.348c-11.601-1.38-23.047 1.547-32.367 8.086C265.848 2.954 256.215 0 246.339 0c-25.429 0-46.562 18.785-50.241 43.21-.907.185-1.782.442-2.668.657-.836-2.02-1.7-4.012-2.68-5.949C177.758 12.195 154.809-2.758 133.543.676c-13.957 2.265-25.52 11.75-32.305 26.05-12.273-5.648-24.797-6.609-36.113-2.624-12.066 4.253-21.441 13.336-27.11 26.277-7.515 17.148-7.523 39.195-.257 60.168-9.793 6.726-17.113 16.605-21.39 28.996-7.196 20.805-4.794 45.906 6.581 68.898 1.246 2.508 2.606 5 4.09 7.446-10.68 6.945-18.68 17.246-22.965 29.812-6.812 19.942-3.797 43.442 8.27 64.45 5.543 9.652 12.883 18.394 21.43 25.581-2.856 11.954-.696 25.09 6.261 36.98 9.793 16.708 27.402 27.966 45.957 29.774 29.227 54.887 65.488 78.457 121.293 102.114l.621.27c7.848 4.917 16.793 7.132 25.645 7.132 5.258 0 10.441-.813 15.336-2.2.078-.027.16-.015.238-.042.04-.016.062-.043.098-.063 4.164-1.218 8.129-2.828 11.652-4.883 16.883-9.855 23.723-26.69 17.844-43.93-16.864-49.48-15.492-86.64 4.082-110.425 33.879-41.152 112.48-31.039 113.254-30.906l9.144 1.242.914-9.18c.125-1.207 2.75-29.867-13.972-49.336a46.842 46.842 0 0 0-3.051-3.23 80.172 80.172 0 0 0 13.992-4.492c31.723-13.41 52.672-43.313 53.348-76.203zM99.44 389.789l-2.492-4.89-5.488.035h-.23c-14.008 0-28.391-8.5-35.836-21.223-5.426-9.266-6.536-19.379-3.051-27.75l2.703-6.484-5.676-4.133c-8.742-6.371-16.215-14.688-21.601-24.07-9.512-16.57-12.02-34.743-6.86-49.844 3.863-11.297 11.61-19.621 22.406-24.086l10.54-4.352-6.786-9.152c-3.175-4.293-5.933-8.77-8.175-13.297-9.133-18.465-11.278-39.098-5.711-55.188 3.683-10.675 10.425-18.609 19.48-22.933l7.613-3.645-3.246-7.8-.394-.844c-7.817-18.465-8.7-38.098-2.328-52.613 2.535-5.79 7.507-13.387 16.73-16.633 8.875-3.13 19.488-.961 29.938 6.066l10.265 6.922 3.274-11.945c3.68-13.395 11.648-22.032 21.879-23.684 13.332-2.27 29.128 9.223 38.46 27.688a67.501 67.501 0 0 1 2.082 4.546c-.207.114-.375.266-.578.383a61.581 61.581 0 0 0-5.293 3.52c-1.023.75-1.984 1.547-2.953 2.36a71.428 71.428 0 0 0-1.902 1.66 62.668 62.668 0 0 0-9.484 10.69c-.204.294-.391.59-.594.884a63.248 63.248 0 0 0-4.235 7.265c-.312.613-.632 1.227-.925 1.848a63.702 63.702 0 0 0-1.508 3.62c-.5 1.282-.926 2.58-1.336 3.895-.34 1.098-.676 2.18-.95 3.301a59.34 59.34 0 0 0-1.175 5.836 96.16 96.16 0 0 0-.293 2.164c-.293 2.438-.488 4.899-.488 7.406 0 1.63.07 3.254.195 4.91-33.711 6.063-58.883 35.352-58.883 70.548a71.42 71.42 0 0 0 6.414 29.539c-9.472 10.132-14.793 23.464-14.793 37.535 0 21.027 12.078 40.097 30.64 49.277-.042 4.758.028 9.39.188 13.938.055 1.484.168 2.925.243 4.394.148 3.024.328 6.04.578 8.98.14 1.684.336 3.329.504 4.981.277 2.66.578 5.305.945 7.89.23 1.692.496 3.372.766 5.036.398 2.492.835 4.953 1.316 7.39.32 1.645.656 3.282 1.012 4.91.535 2.426 1.12 4.84 1.734 7.223.395 1.54.785 3.074 1.203 4.598.703 2.5 1.469 4.96 2.258 7.406.43 1.344.836 2.703 1.293 4.04 1.004 2.945 2.105 5.855 3.246 8.753.313.79.586 1.61.906 2.399a216.459 216.459 0 0 0 4.774 10.906c.48 1.023 1.015 2.035 1.511 3.05 1.254 2.579 2.528 5.15 3.891 7.712.727 1.37 1.512 2.742 2.277 4.117 1.22 2.199 2.446 4.394 3.743 6.574.878 1.484 1.796 2.969 2.703 4.445a302.45 302.45 0 0 0 3.914 6.219c.988 1.531 2 3.059 3.023 4.59a349.34 349.34 0 0 0 4.242 6.172 301.02 301.02 0 0 0 3.254 4.59 581.89 581.89 0 0 0 4.68 6.332c1.129 1.504 2.23 3.007 3.398 4.52 1.727 2.25 3.532 4.526 5.336 6.804 1.102 1.394 2.168 2.773 3.301 4.18l.293.375c-32.668-18.2-55.758-40.329-75.887-79.856zm257.274-148.516-2.367-.394-8.61 1.992-.945 19.629 8.879.473c10.95.558 19.094 4.109 24.902 10.824 7.055 8.156 9.188 19.41 9.766 27.156-24.469-1.594-86.676-1.355-119.238 38.137-23.801 28.863-26.227 71.762-7.23 127.512 4.206 12.355-4.446 19.605-9.981 22.832-.391.234-.836.382-1.235.597-17.398-42.8-28.258-80.879-34.11-114.66-.038-.215-.054-.418-.097-.621-4.625-26.95-6.129-51.168-5.258-72.863 12.454-21.23 49.055-22.086 49.426-22.094 4.91-.082 8.832-4.11 8.762-9.02-.07-4.875-4.027-8.77-8.883-8.77h-.11c-1.449.017-26.808.571-46.925 13.184 2.453-17.613 6.539-33.214 11.598-47.07.5-.605.953-1.265 1.289-2.02a8.682 8.682 0 0 0 .773-3.503c6.379-16.047 14.055-29.512 22.043-40.746 39.879-8.297 69.969 4.18 70.637 4.457a8.76 8.76 0 0 0 3.55.746 8.92 8.92 0 0 0 8.157-5.317c1.972-4.5-.082-9.75-4.574-11.722-1.235-.543-25.774-11.012-61.059-8.442 17.23-17.976 32.367-26.125 34.617-27.27 12.922-6.19 31.805 1.805 38.004 5.427a8.794 8.794 0 0 0 4.5 1.226 8.889 8.889 0 0 0 7.668-4.375c2.492-4.234 1.094-9.68-3.148-12.176-1.016-.605-21.012-12.168-41.493-9.847 1.75-7.211 5.637-13.766 7.622-16.399 2.98-3.898 2.23-9.472-1.672-12.453-3.887-2.98-9.485-2.25-12.461 1.664-.563.719-12.23 16.195-12.203 34.012-12.942 7.926-46.375 31.95-69.77 80.226-1.262 2.598-2.48 5.391-3.691 8.196-24.262-16.59-20.27-46.102-20.047-47.531a8.896 8.896 0 0 0-7.39-10.16c-4.84-.817-9.411 2.535-10.184 7.382-2.579 16.145 1.12 49.41 31.085 67.278-6.617 19.464-11.632 42.695-13.183 70.117a8.784 8.784 0 0 0-.14 2.55c-.927 19.223-.036 40.543 3.058 63.891-11.277-6.207-16.438-15.289-16.766-15.902-2.32-4.317-7.676-5.969-11.996-3.684-4.344 2.285-6.023 7.668-3.726 12.016.468.902 11.117 20.582 35.726 28.187 5.977 32.805 16.48 69.477 32.848 110.211-5.621-.078-11.164-1.476-15.895-4.457l.008-.023a35.996 35.996 0 0 1-2.543-1.817c-.969-.789-1.95-1.562-2.8-2.515-.044-.047-.098-.09-.141-.137l-3.739-4.25c-55.695-64.102-83.574-110.992-81.355-189.406l.187-6.485-6.12-2.152C105.89 277.656 95.91 263.57 95.91 247.86c0-11.18 4.965-21.664 13.61-28.761l5.835-4.786-3.789-6.539c-4.757-8.226-7.277-17.558-7.277-26.976 0-28.996 22.719-52.649 51.715-53.863l10.805-.454-2.528-10.515c-.87-3.61-1.304-7.195-1.304-10.625 0-2.73.3-5.39.773-8.008.113-.668.3-1.305.441-1.957.465-2.035 1.043-4.04 1.77-5.965.195-.535.402-1.058.625-1.586.969-2.285 2.07-4.508 3.387-6.59.054-.078.09-.168.14-.25 2.867-4.48 6.524-8.402 10.73-11.66.579-.445 1.192-.836 1.786-1.254a45.949 45.949 0 0 1 4.43-2.722 43.393 43.393 0 0 1 2.925-1.457c4.68-2.11 9.73-3.567 15.094-3.965l8.219-.625v-8.27l-.016-.695c.301-17.984 15.004-32.535 33.059-32.535 8.043 0 15.87 3.062 22.031 8.62l6.238 5.63 5.977-5.906c6.277-6.208 14.898-9.18 23.82-8.118 11.168 1.317 20.864 9.649 24.102 20.73 1.078 3.657 1.398 7.376.96 11.048l-.917 9.918h10.008c26.035 0 47.816 20.351 49.605 46.332l.41 5.84 5.524 1.94c27.242 9.552 45.136 35.337 44.543 64.165-.536 25.883-17.215 49.496-42.48 60.168-12.72 5.355-25.626 6.367-39.446 3.105zm0 0" fill="#000000" data-original="#000000" class=""></path></g></svg>