<svg xmlns="http://www.w3.org/2000/svg" version="1.1" xmlns:xlink="http://www.w3.org/1999/xlink" xmlns:svgjs="http://svgjs.com/svgjs" width="512" height="512" x="0" y="0" viewBox="0 0 511 511" style="enable-background:new 0 0 512 512" xml:space="preserve" class=""><g><path d="M221.234 71.04v58.007c0 3.832-1.101 7.584-3.172 10.809l-49.6 77.22a20.002 20.002 0 0 0-3.172 10.809V471c0 16.569 13.431 30 30 30h120.421c16.569 0 30-13.431 30-30V227.884c0-3.832-1.101-7.584-3.172-10.809l-49.6-77.22a20.002 20.002 0 0 1-3.172-10.809V71.04M293.042 68.018h-75.083a9.64 9.64 0 0 1-9.641-9.641V19.641A9.64 9.64 0 0 1 217.959 10h75.083a9.64 9.64 0 0 1 9.641 9.641v38.736c0 5.324-4.317 9.641-9.641 9.641z" style="stroke-width:20;stroke-linecap:round;stroke-linejoin:round;stroke-miterlimit:10;" fill="none" stroke="#000000" stroke-width="20" stroke-linecap="round" stroke-linejoin="round" stroke-miterlimit="10" data-original="#000000" class=""></path><path d="M301.142 410.721h44.569V280.003h-52.296c0-20.939-16.975-37.914-37.914-37.914s-37.914 16.975-37.914 37.914h-52.296v130.718h44.732M255.5 281.835h0" style="stroke-width:20;stroke-linecap:round;stroke-linejoin:round;stroke-miterlimit:10;" fill="none" stroke="#000000" stroke-width="20" stroke-linecap="round" stroke-linejoin="round" stroke-miterlimit="10" data-original="#000000" class=""></path><path d="M292.683 368.779h-74.365c-5.523 0-10-4.477-10-10v-20c0-5.523 4.477-10 10-10h74.365c5.523 0 10 4.477 10 10v20c0 5.523-4.478 10-10 10zM255.5 410.721h0" style="stroke-width:20;stroke-linecap:round;stroke-linejoin:round;stroke-miterlimit:10;" fill="none" stroke="#000000" stroke-width="20" stroke-linecap="round" stroke-linejoin="round" stroke-miterlimit="10" data-original="#000000" class=""></path></g></svg>