<svg xmlns="http://www.w3.org/2000/svg" version="1.1" xmlns:xlink="http://www.w3.org/1999/xlink" xmlns:svgjs="http://svgjs.com/svgjs" width="512" height="512" x="0" y="0" viewBox="0 0 511.999 511" style="enable-background:new 0 0 512 512" xml:space="preserve" class=""><g><path d="M480.273 203.828c-24.562-24.933-58.503-36.566-92.312-32.605v-26.668c0-78.856-63.383-143.48-141.29-144.051C219.759.3 193.458 7.66 170.68 21.78a142.783 142.783 0 0 0-51.926 56.375 582.869 582.869 0 0 1-14.797 27.18 7.581 7.581 0 0 0 2.754 10.355 7.576 7.576 0 0 0 10.351-2.754 598.582 598.582 0 0 0 15.18-27.886c6.863-13.43 15.836-25.254 26.395-35.16 4.879-.094 17.675.164 30.191 4.648 4.094 1.469 8.695-.93 9.856-5.117 1.046-3.77-1.067-7.828-4.746-9.145-6.024-2.16-12.055-3.496-17.497-4.316 20.434-13.223 44.637-20.504 70.118-20.309 69.613.512 126.254 58.336 126.254 128.903v29.504a114.224 114.224 0 0 0-6.551 1.89c-17.594 5.692-34.52 10.059-51.043 13.172-3.91-7.101-12.922-19.484-30.446-25.598-3.953-1.382-8.27.707-9.648 4.657a7.576 7.576 0 0 0 4.656 9.648c9.582 3.34 15.63 9.184 19.211 13.965a326.705 326.705 0 0 1-27.05 2.684c-37.227 2.117-71.782 17.625-98.153 43.98-42.672 42.672-42.672 112.106.02 154.793 11.707 11.512 24.593 21.688 38.746 30.04-24.055 7.933-47.973 10.28-73.067 11.687-69.078 0-126.074-58.786-124.297-127.75.754-43.704 15.942-82.454 45.141-115.172 13.2-14.793 25.848-31.118 37.594-48.52a7.576 7.576 0 0 0-2.04-10.515 7.57 7.57 0 0 0-10.515 2.039c-11.367 16.843-23.594 32.625-36.34 46.91C17.348 217.473.867 259.527.043 306.902-1.934 384.234 62.059 450.13 139.488 450.13c31.184 0 62.32-5.89 91.317-17.363 25.41 11.52 53.265 17.355 81.156 17.16 51.226-.332 99.39-20.465 135.617-56.692a7.58 7.58 0 0 0 0-10.714 7.582 7.582 0 0 0-10.71 0c-29.298 29.3-66.579 46.218-105.106 50.734 3.968-9.598 7.168-23.879 2.215-40.527a7.571 7.571 0 0 0-9.422-5.098 7.57 7.57 0 0 0-5.098 9.418c5.32 17.89-1.91 32.133-5.242 37.398-48.457.946-95.211-18-129.711-51.925-35.715-35.711-36.727-93.176-3.059-130.133 5.2 1.933 13.992 6.664 14.489 16.633.207 4.113 3.82 7.406 7.945 7.187 4.121-.207 7.39-3.82 7.187-7.945-.68-13.547-9.238-22.184-17.89-27.082 22.601-19.242 49.344-29.856 79.625-31.575 31.105-1.765 64.12-8.242 98.125-19.246a100.107 100.107 0 0 1 9.61-2.578c5.913 2.985 22.296 12.754 24.51 30.301.52 4.098 4.368 7.082 8.466 6.566 4.093-.52 7.082-4.367 6.566-8.464-1.707-13.508-8.879-23.532-16.379-30.532 24.399.711 47.95 10.703 65.785 28.805 37.067 37.621 36.418 99.027-1.441 136.887l-6.004 6.008a7.572 7.572 0 0 0 0 10.71 7.575 7.575 0 0 0 10.711 0l6.004-6.007c43.726-43.72 44.406-114.703 1.52-158.227-24.563-24.933 42.886 43.524 0 0zm0 0" fill="#000000" data-original="#000000" class=""></path><path d="M161.078 141.895a7.573 7.573 0 0 0-7.57 7.48 7.574 7.574 0 0 0 7.48 7.668c.235 0 23.668.715 34.274 15.941 2.547 3.657 7.86 4.301 11.215 1.368 2.863-2.508 3.394-6.903 1.218-10.024-15.183-21.8-45.25-22.418-46.523-22.433h-.094zM307.29 105.32c4.01-.972 6.55-5.132 5.577-9.144-6.449-26.598-34.945-32.664-36.156-32.91-4.086-.825-8.059 1.808-8.906 5.89-.844 4.082 1.785 8.086 5.867 8.953.828.176 20.316 4.493 24.473 21.633.84 3.469 5.132 6.551 9.144 5.578zM116.887 255.566c-8.297-30.82-44.239-35.656-45.766-35.847a7.575 7.575 0 0 0-8.441 6.558c-.528 4.137 2.402 7.93 6.543 8.473.273.035 27.402 3.828 33.035 24.754 1.101 4.094 5.508 6.52 9.558 5.266 3.84-1.188 6.114-5.325 5.07-9.204-8.296-30.82 1.087 4.04 0 0zM313.633 228.395a7.567 7.567 0 0 0-9.98 3.828c-1.704 3.812.003 8.289 3.808 10.004.234.105 23.223 10.695 24.836 30.078.344 4.101 4.066 7.277 8.18 6.918 4.113-.344 7.261-4.063 6.918-8.176-2.368-28.387-32.48-42.086-33.762-42.652-3.817-1.696 1.281.566 0 0zM404.05 260.973c-3.663-1.98-8.222-.625-10.226 3.027-2.004 3.652-.664 8.25 2.973 10.273.129.07 12.773 7.254 14.3 20.489.473 4.097 4.294 7.136 8.395 6.656 4.098-.473 7.13-4.293 6.656-8.39-2.445-21.18-21.296-31.618-22.097-32.055-3.664-1.985.8.437 0 0zm0 0" fill="#000000" data-original="#000000" class=""></path></g></svg>