<svg xmlns="http://www.w3.org/2000/svg" version="1.1" xmlns:xlink="http://www.w3.org/1999/xlink" xmlns:svgjs="http://svgjs.com/svgjs" width="512" height="512" x="0" y="0" viewBox="0 0 60 60" style="enable-background:new 0 0 512 512" xml:space="preserve" class=""><g><path d="M56 39c0-5.876-1.2-11.362-3.262-15.1A3 3 0 0 0 55 21v-4a3 3 0 0 0-3-3h-1.434L48.14 9.956a3.97 3.97 0 0 1-.365-.792A6.618 6.618 0 0 0 43.944 5.1l-1.884-.753a3.971 3.971 0 0 1-1.013-.591l-3.053-2.441A6.017 6.017 0 0 0 34.246 0h-.861A6 6 0 0 0 30.3.855L27.673 2.43a4 4 0 0 1-2.058.57H24.5a6.031 6.031 0 0 0-4.8 2.4A4.021 4.021 0 0 1 16.5 7a6.3 6.3 0 0 0-5.8 3.823L9.341 14H8a3 3 0 0 0-3 3v4a3 3 0 0 0 2.262 2.9C5.2 27.638 4 33.124 4 39a39.185 39.185 0 0 0 1.078 9.286 4.047 4.047 0 0 1-.37 2.891 6 6 0 0 0 4.265 8.737 6.053 6.053 0 0 0 4.124-.773 4.044 4.044 0 0 1 2.982-.594A63.434 63.434 0 0 0 30 60a63.45 63.45 0 0 0 13.922-1.453 4.063 4.063 0 0 1 2.982.594 6.06 6.06 0 0 0 4.123.773 5.994 5.994 0 0 0 4.265-8.736 4.05 4.05 0 0 1-.37-2.892A39.185 39.185 0 0 0 56 39ZM12.54 11.611A4.3 4.3 0 0 1 16.5 9a6.031 6.031 0 0 0 4.8-2.4A4.021 4.021 0 0 1 24.5 5h1.115a6 6 0 0 0 3.085-.855l2.627-1.575A4 4 0 0 1 33.385 2h.861a4.013 4.013 0 0 1 2.5.877l3.054 2.44a5.963 5.963 0 0 0 1.519.887l1.886.754A4.622 4.622 0 0 1 45.878 9.8a5.951 5.951 0 0 0 .547 1.189L48.234 14H11.516ZM7 17a1 1 0 0 1 1-1h44a1 1 0 0 1 1 1v4a1 1 0 0 1-1 1H8a1 1 0 0 1-1-1Zm46.528 35.12a4 4 0 0 1-5.591 5.308 6.042 6.042 0 0 0-4.463-.83A61.416 61.416 0 0 1 30 58a61.4 61.4 0 0 1-13.473-1.4 6.042 6.042 0 0 0-4.464.83 4 4 0 0 1-5.591-5.309A6.044 6.044 0 0 0 7.02 47.8 37.125 37.125 0 0 1 6 39c0-6.064 1.328-11.6 3.554-15h40.892C52.672 27.4 54 32.936 54 39a37.125 37.125 0 0 1-1.02 8.8 6.047 6.047 0 0 0 .548 4.32Z" fill="#000000" data-original="#000000"></path><path d="M27 7h-2a1 1 0 0 0 0 2h2a1 1 0 0 0 0-2ZM36 5h-2a1 1 0 0 0 0 2h2a1 1 0 0 0 0-2ZM22 10h-2a1 1 0 0 0 0 2h2a1 1 0 0 0 0-2ZM33 10h-2a1 1 0 0 0 0 2h2a1 1 0 0 0 0-2ZM41 10h-2a1 1 0 0 0 0 2h2a1 1 0 0 0 0-2ZM23 32a1 1 0 0 0-1 1v7.5a1.5 1.5 0 0 1-3 0V33a1 1 0 0 0-2 0v7.5a3.5 3.5 0 0 0 7 0V33a1 1 0 0 0-1-1ZM38.5 32a3.5 3.5 0 0 0-3.5 3.5V43a1 1 0 0 0 2 0v-3h3v3a1 1 0 0 0 2 0v-7.5a3.5 3.5 0 0 0-3.5-3.5ZM37 38v-2.5a1.5 1.5 0 0 1 3 0V38ZM51 36a4 4 0 0 0-4-4h-2a1 1 0 0 0-1 1v10a1 1 0 0 0 2 0v-3h1a2 2 0 0 1 2 2v1a1 1 0 0 0 2 0v-1a3.975 3.975 0 0 0-1.382-3A3.975 3.975 0 0 0 51 36Zm-5 2v-4h1a2 2 0 0 1 0 4ZM32 38h-1a1 1 0 0 0 0 2v.5a1.5 1.5 0 0 1-3 0v-5a1.5 1.5 0 0 1 2.97-.3 1 1 0 0 0 1.961-.4 3.5 3.5 0 0 0-6.931.7v5a3.5 3.5 0 0 0 7 0V39a1 1 0 0 0-1-1ZM11.5 37a1.5 1.5 0 1 1 1.47-1.8 1 1 0 0 0 1.961-.4A3.5 3.5 0 1 0 11.5 39a1.5 1.5 0 1 1-1.47 1.8 1 1 0 0 0-1.961.4A3.5 3.5 0 1 0 11.5 37Z" fill="#000000" data-original="#000000"></path></g></svg>