<svg xmlns="http://www.w3.org/2000/svg" version="1.1" xmlns:xlink="http://www.w3.org/1999/xlink" xmlns:svgjs="http://svgjs.com/svgjs" width="512" height="512" x="0" y="0" viewBox="0 0 512.001 512.001" style="enable-background:new 0 0 512 512" xml:space="preserve" class=""><g><path d="M336.012 325.969c-5.519 0-9.999 4.48-9.999 9.999s4.48 9.999 9.999 9.999 9.999-4.48 9.999-9.999-4.48-9.999-9.999-9.999z" fill="#000000" data-original="#000000"></path><path d="M408.582 137.303c-16.19-28.457-41.974-46.502-69.516-48.476l-.118-.008c-15.786-1.107-30.331 2.967-44.464 10.072-.544.274-1.076.56-1.614.84 11.343-23.689 35.532-39.736 63.139-39.736 16.54 0 29.997-13.457 29.997-29.997S372.55 0 356.01 0c-62.666 0-115.829 44.958-127.557 104.955-16.427-9.951-34.392-17.651-55.475-16.128-27.546 1.985-53.336 20.036-69.531 48.494-19.508 10.13-35.762 28.452-45.986 51.992-11.177 25.736-14.249 54.992-8.883 84.605 12.22 67.444 45.577 222.713 112.712 235.761 25.809 5.017 45.538 2.56 65.124-13.89 8.919 5.434 18.839 8.194 29.604 8.194 13.379 0 25.48-4.619 36.098-13.736 17.996 16.273 39.221 26.472 62.255 19.509 64.442-19.481 97.074-167.472 109.088-233.782a157.507 157.507 0 0 0 2.529-28.666l.001-.063v-.194c.363-48.095-22.562-91.662-57.407-109.748zm-70.958-28.529.107.007c14.361 1.056 28.251 8.202 39.707 19.956a73.992 73.992 0 0 0-3.63-.099c-22.484 0-41.265 10.188-58.485 21.555-8.73-4.82-18.662-8.541-29.307-10.979v-9.226c0-.976.027-1.948.067-2.918 15.809-10.456 32.562-19.666 51.541-18.296zm-91.604 21.214c0-60.84 49.674-109.99 109.99-109.99 5.513 0 9.999 4.486 9.999 9.999s-4.486 9.999-9.999 9.999c-49.556 0-89.992 40.073-89.992 89.992v6.246a137.329 137.329 0 0 0-19.998 0v-6.246zm-71.601-21.215c18.835-1.358 35.296 7.532 51.652 18.36-.021.949-.049 1.896-.049 2.854v9.227c-10.651 2.44-20.583 6.162-29.31 10.98-18.245-12.04-38.143-22.666-62.097-21.461 11.482-11.774 25.409-18.923 39.804-19.96zm-9.314 381.275c-37.022-7.194-73.227-89.324-96.849-219.696-4.592-25.342-1.912-51.292 7.548-73.072 10.877-25.045 31.808-46.565 58.617-48.51 16.224-1.164 30.686 5.264 44.829 13.986-13.702 12.79-25.68 32.973-23.671 64.01 4.939 76.288 11.419 130.822 20.392 171.62 8.808 40.047 20.065 67.237 35.003 84.222-11.119 8.503-23.568 11.773-45.869 7.44zM443.67 273.021c-22.74 125.137-58.271 206.464-95.085 217.593-13.095 3.958-27.585-1.183-43.144-15.278 14.491-20.552 25.777-52.743 34.376-97.955 1.031-5.425-2.53-10.659-7.955-11.691a9.996 9.996 0 0 0-11.691 7.955c-9.042 47.551-20.702 78.959-35.647 96.022-8.433 9.633-17.756 14.316-28.503 14.316-9.083 0-16.937-2.847-24.018-8.707-37.513-31.004-49.595-143.677-56.467-249.805-2.552-39.423 24.1-62.06 62.081-68.156 12.077-1.953 24.716-1.955 36.817.002 37.948 6.09 64.631 28.576 62.068 68.152-1.71 26.362-3.538 49.193-5.591 69.8-.547 5.495 3.465 10.394 8.959 10.941 5.497.534 10.393-3.466 10.941-8.959 2.075-20.838 3.923-43.894 5.647-70.489 2.008-31.032-9.966-51.213-23.662-64.001 15.81-9.714 31.669-16.389 49.969-13.35 16.065 2.809 31.153 13.29 42.788 29.821 13.048 18.536 20.304 42.65 20.436 67.913-.149 16.379-2.647 22.177-2.319 25.876z" fill="#000000" data-original="#000000"></path></g></svg>