<svg xmlns="http://www.w3.org/2000/svg" version="1.1" xmlns:xlink="http://www.w3.org/1999/xlink" xmlns:svgjs="http://svgjs.com/svgjs" width="512" height="512" x="0" y="0" viewBox="0 0 74 74" style="enable-background:new 0 0 512 512" xml:space="preserve" class=""><g><path d="M20.544 70a24.151 24.151 0 0 1-18.3-8.387 1 1 0 0 1 .835-1.65l7.363.576a24.292 24.292 0 0 0 25.967-20.927c.28-2.116.569-4.25.854-6.347l.549-4.059A15.489 15.489 0 0 1 58.35 16.7a15.511 15.511 0 0 1 8.059 22.611l-4.984 8.24A46.884 46.884 0 0 1 21.712 70zM5.558 62.163A22.146 22.146 0 0 0 20.547 68h1.162a44.869 44.869 0 0 0 38-21.483l4.984-8.24a13.488 13.488 0 1 0-24.9-8.8l-.548 4.058c-.284 2.1-.573 4.226-.854 6.343a26.292 26.292 0 0 1-28.106 22.655z" fill="#000000" data-original="#000000"></path><path d="m45.942 31.292-1.975-.317A11.1 11.1 0 0 1 54.941 21.6l.006 2a9.111 9.111 0 0 0-9.005 7.692zM49.487 17.08v-.026h2zM66.735 25.413l-1.414-1.414 1.427 1.401z" fill="#000000" data-original="#000000"></path><path d="M66.041 25.693a1 1 0 0 1-.893-.55 13.459 13.459 0 0 0-14.477-7.106 1 1 0 0 1-1.179-1.09 5.222 5.222 0 0 1 .461-1.638c1.363-3.024 5.114-4.522 9.245-3.761a38.809 38.809 0 0 1 6.622-6.881A3.873 3.873 0 0 1 72 7.775a3.843 3.843 0 0 1-1.5 3.042 21.975 21.975 0 0 0-4.414 4.416c2.4 2.515 3.2 5.691 2.029 8.282a6.131 6.131 0 0 1-1.4 1.913 1 1 0 0 1-.674.265zM53.154 15.8a15.484 15.484 0 0 1 13.026 7.115q.063-.116.12-.237c.895-1.979.045-4.559-2.169-6.559a1 1 0 0 1-.188-1.256 21.712 21.712 0 0 1 5.327-5.622 1.851 1.851 0 0 0 .092-2.872 1.892 1.892 0 0 0-2.352-.094 39.35 39.35 0 0 0-6.586 6.972 1 1 0 0 1-1.04.383c-3.3-.79-6.309.123-7.467 2.223q.62-.053 1.237-.053z" fill="#000000" data-original="#000000"></path></g></svg>