<svg xmlns="http://www.w3.org/2000/svg" version="1.1" xmlns:xlink="http://www.w3.org/1999/xlink" xmlns:svgjs="http://svgjs.com/svgjs" width="512" height="512" x="0" y="0" viewBox="0 0 469.985 469.985" style="enable-background:new 0 0 512 512" xml:space="preserve" class=""><g><path d="M382.307 155.641c-19.967-2.196-34.327-8.631-46.559-20.863-12.23-12.23-18.665-26.589-20.861-46.557a7.5 7.5 0 0 0-14.91 1.64c2.596 23.591 10.357 40.715 25.165 55.522 14.809 14.811 31.934 22.572 55.525 25.167a7.503 7.503 0 0 0 8.275-6.635 7.5 7.5 0 0 0-6.635-8.274zM292.661 46.631c-12.543-10.734-28.577-16.646-45.146-16.646-4.142 0-7.5 3.357-7.5 7.5s3.358 7.5 7.5 7.5c12.995 0 25.564 4.632 35.393 13.043a7.469 7.469 0 0 0 4.873 1.802 7.5 7.5 0 0 0 4.88-13.199z" fill="#000000" data-original="#000000" class=""></path><path d="M462.972 231.356c-.102-.018-.204-.024-.306-.037-3.963-.524-7.677 2.159-8.371 6.137-7.278 41.71-47.572 70.962-95.805 69.6-13.853-.397-27.944-2.939-42.005-7.486 3.672-13.109 5.752-26.242 6.124-39.216.762-26.619-6.932-52.461-21.667-72.763-15.566-21.449-38.153-35.217-63.601-38.765a99.59 99.59 0 0 0-63.825 12.544c-6.153-16.484-9.577-33.071-10.043-49.331-1.424-49.722 29.001-90.197 72.344-96.241 22.507-3.137 45.692 3.057 63.602 16.995 17.25 13.425 28.038 32.527 30.377 53.788 1.847 16.786 6.645 27.678 16.559 37.592 9.914 9.915 20.805 14.712 37.592 16.56 35.762 3.934 64.78 32.381 70.567 69.179.627 3.989 4.294 6.734 8.268 6.276.102-.012.204-.016.307-.032a7.5 7.5 0 0 0 6.244-8.574c-6.835-43.467-41.273-77.087-83.745-81.759-13.41-1.476-21.168-4.797-28.625-12.255-7.459-7.459-10.78-15.218-12.256-28.627-2.786-25.325-15.598-48.049-36.074-63.984C287.543 4.543 260.246-2.755 233.747.943c-25.447 3.548-48.034 17.314-63.601 38.764-14.734 20.303-22.429 46.144-21.667 72.763.547 19.078 4.77 38.501 12.361 57.685-.641.521-1.29 1.031-1.919 1.569-18.38 15.729-29.937 37.429-32.541 61.103-1.476 13.409-4.797 21.167-12.256 28.626-7.458 7.458-15.216 10.779-28.625 12.255-25.326 2.786-48.05 15.599-63.986 36.075C5.1 330.872-2.194 358.167 1.501 384.668c3.517 25.218 16.45 46.861 37.403 62.592 19.519 14.652 44.565 22.724 70.527 22.726 1.208 0 2.397-.018 3.598-.052 47.841-1.37 97.854-25.788 140.823-68.757 27.088-27.089 46.795-56.977 58.012-87.355 15.421 4.992 30.919 7.791 46.198 8.229 1.242.035 2.478.053 3.71.053 54.103 0 98.921-34.043 107.3-82.068a7.503 7.503 0 0 0-6.1-8.68zM16.357 382.595c-3.139-22.51 3.056-45.691 16.994-63.602 13.425-17.25 32.528-28.039 53.789-30.378 16.787-1.848 27.678-6.645 37.592-16.559 9.915-9.914 14.712-20.805 16.559-37.592 4.49-40.816 39.864-71.597 82.283-71.597 3.893 0 7.828.273 11.696.813 43.343 6.044 73.769 46.52 72.344 96.242-1.26 43.998-24.121 90.396-64.37 130.646-40.25 40.25-86.648 63.11-130.646 64.37-1.06.03-2.089.021-3.167.046-48.082-.003-87.226-30.447-93.074-72.389z" fill="#000000" data-original="#000000" class=""></path><path d="M171.111 237.747a7.5 7.5 0 0 0-6.635-8.275c-4.12-.441-7.822 2.518-8.275 6.635-2.197 19.968-8.631 34.326-20.861 46.558-12.232 12.231-26.591 18.666-46.559 20.862a7.5 7.5 0 1 0 1.64 14.91c23.591-2.595 40.716-10.356 55.525-25.166 14.808-14.809 22.569-31.934 25.165-55.524zM183.307 207.714a7.47 7.47 0 0 0 4.873-1.802c9.828-8.411 22.397-13.043 35.393-13.043 4.142 0 7.5-3.357 7.5-7.5s-3.358-7.5-7.5-7.5c-16.569 0-32.602 5.912-45.146 16.646a7.5 7.5 0 0 0-.822 10.574 7.475 7.475 0 0 0 5.702 2.625z" fill="#000000" data-original="#000000" class=""></path></g></svg>