<svg xmlns="http://www.w3.org/2000/svg" version="1.1" xmlns:xlink="http://www.w3.org/1999/xlink" xmlns:svgjs="http://svgjs.com/svgjs" width="512" height="512" x="0" y="0" viewBox="0 0 63.01 63.01" style="enable-background:new 0 0 512 512" xml:space="preserve" class=""><g><path d="M31.505 44.625c-9.894 0-21.853-1.179-25.746-4.487C-1.291 34.145.086 25.651.148 25.292c.072-.417.317-.783.675-1.01a1.488 1.488 0 0 1 1.201-.18c11.1 3.054 20.468 4.476 29.481 4.476s18.381-1.422 29.481-4.476a1.5 1.5 0 0 1 1.876 1.19c.061.359 1.438 8.853-5.612 14.846-3.892 3.308-15.851 4.487-25.745 4.487zM2.995 27.471c.005 2.4.626 6.911 4.708 10.381 2.613 2.222 12.401 3.773 23.802 3.773s21.189-1.551 23.802-3.773c4.081-3.469 4.703-7.978 4.707-10.381-10.602 2.798-19.705 4.107-28.509 4.107s-17.907-1.309-28.51-4.107z" fill="#000000" data-original="#000000"></path><path d="M40.525 30.865a1.5 1.5 0 0 1-1.434-1.064 8.827 8.827 0 0 1-.382-2.577c0-4.875 3.965-8.84 8.84-8.84s8.842 3.965 8.842 8.84a1.5 1.5 0 1 1-3 0c0-3.22-2.621-5.84-5.842-5.84a5.847 5.847 0 0 0-5.589 7.543 1.499 1.499 0 0 1-1.435 1.938zM23.664 30.865a1.5 1.5 0 0 1-1.436-1.938 5.847 5.847 0 0 0-5.59-7.543 5.847 5.847 0 0 0-5.841 5.84 1.5 1.5 0 1 1-3 0c0-4.875 3.966-8.84 8.841-8.84s8.841 3.965 8.841 8.84c0 .879-.128 1.746-.382 2.577a1.5 1.5 0 0 1-1.433 1.064z" fill="#000000" data-original="#000000"></path><path d="M24.658 30.893a1.5 1.5 0 0 1-1.467-1.198 8.79 8.79 0 0 1-.141-2.602 8.778 8.778 0 0 1 3.159-5.983 8.795 8.795 0 0 1 6.465-1.997c4.854.454 8.434 4.772 7.981 9.625a1.5 1.5 0 0 1-2.987-.279 5.848 5.848 0 0 0-5.273-6.359 5.795 5.795 0 0 0-4.27 1.319 5.8 5.8 0 0 0-2.088 3.953 5.841 5.841 0 0 0 .091 1.718 1.5 1.5 0 0 1-1.47 1.803zM40.438 38.92c-1.689 0-3.541-.063-5.576-.2a1.501 1.501 0 0 1-1.396-1.598 1.492 1.492 0 0 1 1.599-1.395c15.311 1.034 19.408-2.47 19.695-3.908.063-.825.784-1.395 1.605-1.341.826.062 1.44.824 1.378 1.65-.093 1.222-1.4 6.792-17.305 6.792z" fill="#000000" data-original="#000000"></path></g></svg>