<svg xmlns="http://www.w3.org/2000/svg" version="1.1" xmlns:xlink="http://www.w3.org/1999/xlink" xmlns:svgjs="http://svgjs.com/svgjs" width="512" height="512" x="0" y="0" viewBox="0 0 512 512" style="enable-background:new 0 0 512 512" xml:space="preserve" class=""><g><path d="M511.349 168.737c-13.739-30.787-42.53-51.858-75.378-56.114a95.457 95.457 0 0 0 8.824-16.464 7.5 7.5 0 1 0-13.848-5.764c-4.07 9.779-9.953 18.556-17.482 26.086a80.623 80.623 0 0 1-22.468 15.841 150.247 150.247 0 0 0-30.266-16.11l53.154-53.154a7.5 7.5 0 0 0 0-10.606 7.498 7.498 0 0 0-10.606 0l-58.508 58.508c-.565-.152-1.127-.316-1.694-.462-1.558-4.222-3.275-8.368-5.197-12.402 2.247-10.745 2.257-20.992.189-30.21a80.543 80.543 0 0 1 11.786-15.014c21.773-21.772 54.056-29.245 83.099-19.489 2.763 8.226 4.176 16.816 4.206 25.585a7.5 7.5 0 0 0 7.5 7.475h.026a7.5 7.5 0 0 0 7.475-7.525c-.04-11.729-2.173-23.194-6.339-34.078a7.502 7.502 0 0 0-4.323-4.323C406.138 6.98 366.001 15.515 339.25 42.266a95.443 95.443 0 0 0-7.912 8.981 48.428 48.428 0 0 0-6.81-8.592c-13.185-13.185-33.272-17.989-55.442-13.353-31.136-14.832-68.289-18.904-104.96-11.455-38.638 7.849-74.521 27.46-103.774 56.713S11.488 139.697 3.639 178.331c-7.45 36.672-3.377 73.824 11.455 104.96-4.636 22.168.167 42.257 13.353 55.442 13.184 13.185 33.271 17.991 55.441 13.353 12.904 6.153 26.821 10.489 41.41 12.9 4.084.683 7.947-2.089 8.623-6.177a7.501 7.501 0 0 0-6.177-8.623c-14.027-2.318-27.344-6.592-39.581-12.705a7.491 7.491 0 0 0-5.114-.581c-18.026 4.357-34.062 1.159-43.995-8.774s-13.131-25.968-8.774-43.995a7.497 7.497 0 0 0-.581-5.114c-14.306-28.641-18.34-63.338-11.359-97.701 7.26-35.739 25.456-68.987 52.62-96.151s60.412-45.359 96.15-52.62c34.365-6.98 69.063-2.946 97.702 11.359a7.508 7.508 0 0 0 5.114.581c18.026-4.356 34.062-1.159 43.995 8.774s13.13 25.968 8.774 43.995a7.494 7.494 0 0 0 .581 5.113 127.493 127.493 0 0 1 2.228 4.728 151.317 151.317 0 0 0-19.934-1.324c-83.122 0-150.747 67.625-150.747 150.747 0 34.717 11.803 66.722 31.6 92.23a170.407 170.407 0 0 1-25.342 3.247 7.5 7.5 0 1 0 .777 14.979c12.054-.625 24.004-2.462 35.723-5.403 22.693 23.314 52.843 39.336 86.561 44.156a13.418 13.418 0 0 1-.559 9.984l-12.811 27.592c-5.544 11.941-4.626 25.697 2.458 36.795 7.083 11.099 19.173 17.725 32.34 17.725s25.256-6.626 32.339-17.725c7.083-11.098 8.002-24.854 2.458-36.796l-12.813-27.597a13.25 13.25 0 0 1-.472-9.988 150.506 150.506 0 0 0 78.03-35.997c27.254-23.987 44.945-56.915 49.813-92.717a7.5 7.5 0 0 0-14.863-2.021c-4.382 32.228-20.313 61.874-44.859 83.478a135.457 135.457 0 0 1-48.35 27.365 51.032 51.032 0 0 0 7.736-14.88c43.094-18.931 73.268-62.014 73.268-112.02 0-67.429-54.858-122.287-122.287-122.287S183.281 191.501 183.281 258.93c0 50.02 30.192 93.114 73.305 112.036a51.504 51.504 0 0 0 7.764 14.902c-54.762-17.49-94.529-68.861-94.529-129.348 0-74.851 60.896-135.747 135.747-135.747 33.691 0 65.999 12.429 90.972 34.997 24.795 22.407 40.414 52.959 43.978 86.03a7.5 7.5 0 0 0 14.914-1.608 150.29 150.29 0 0 0-2.02-13.182c25.373-8.294 46.697-26.971 57.938-52.162a7.5 7.5 0 0 0-.001-6.111zM324.75 386.038c-12.19 7.526-16.834 22.997-10.803 35.987l12.813 27.597c3.377 7.273 2.817 15.65-1.497 22.41s-11.677 10.794-19.695 10.794-15.381-4.036-19.695-10.795-4.874-15.136-1.497-22.409l12.811-27.592c6.065-13.065 1.497-28.492-10.627-35.885a36.471 36.471 0 0 1-9.402-8.267 122.185 122.185 0 0 0 28.41 3.339c9.797 0 19.325-1.165 28.461-3.352a36.83 36.83 0 0 1-9.279 8.173zm-11.682-20.088v-80.525a27.41 27.41 0 0 0 5.928-2.461l56.911 56.911c-17.08 14.861-38.89 24.413-62.839 26.075zm73.445-36.681-56.911-56.911a27.36 27.36 0 0 0 2.461-5.928h80.525c-1.661 23.949-11.214 45.759-26.075 62.839zm26.076-77.839h-80.525a27.41 27.41 0 0 0-2.461-5.928l56.911-56.911c14.86 17.079 24.413 38.89 26.075 62.839zm-99.521-99.521c23.949 1.662 45.759 11.214 62.839 26.075l-56.911 56.911a27.36 27.36 0 0 0-5.928-2.461zm5.042 107.021c0 6.916-5.626 12.542-12.542 12.542s-12.542-5.626-12.542-12.542 5.626-12.542 12.542-12.542c6.915-.001 12.542 5.626 12.542 12.542zm-20.042-107.021v80.525a27.41 27.41 0 0 0-5.928 2.461l-56.911-56.911c17.079-14.86 38.89-24.413 62.839-26.075zm-73.446 36.682 56.911 56.911a27.36 27.36 0 0 0-2.461 5.928h-80.525c1.662-23.949 11.215-45.76 26.075-62.839zm-26.075 77.839h80.525a27.41 27.41 0 0 0 2.461 5.928l-56.911 56.911c-14.861-17.08-24.413-38.89-26.075-62.839zm36.682 73.445 56.911-56.911a27.36 27.36 0 0 0 5.928 2.461v80.525c-23.949-1.662-45.76-11.214-62.839-26.075zM449.743 212.43a150.158 150.158 0 0 0-14.695-33.137h26.695a7.5 7.5 0 0 0 0-15h-36.934a151.516 151.516 0 0 0-18.211-19.651c-.839-.758-1.693-1.495-2.547-2.232a95.627 95.627 0 0 0 20.019-15.321c.086-.086.165-.177.251-.263 30.536.246 58.348 17.726 71.889 44.967-9.642 19.397-26.523 33.835-46.467 40.637z" fill="#000000" data-original="#000000"></path></g></svg>