<svg xmlns="http://www.w3.org/2000/svg" version="1.1" xmlns:xlink="http://www.w3.org/1999/xlink" xmlns:svgjs="http://svgjs.com/svgjs" width="512" height="512" x="0" y="0" viewBox="0 0 128 128" style="enable-background:new 0 0 512 512" xml:space="preserve" class=""><g><path d="M2.4 115.9c.2.6.7 1.1 1.3 1.2 24.3 5.1 58.4 6 77.3-10.1 16.9-14.4 21.1-38.3 16.8-59.4 4.8-5.1 6.2-12.6 3.6-19.2-1.2-2.9-1.3-6.1-.5-9.1 3 2.1 6.8 3.1 10.5 2.6 8.3-1.3 13.8-9.9 14-10.3.6-1 .1-2.3-1-2.6-18.6-5.3-25.5 6.2-25.8 6.7-.6.9-1.6 3.9-1.7 6.8-4.5.1-15.8 1.3-19.7 11.6-.3.8.1 1.8.9 2.2 7.9 3.6 16.1.3 20-6.8 0 0 .1.1.1.2 2.2 5.5 1 11.7-3.2 15.8-.9.4-5.6 2.3-12.9 6-2.9-1.3-6.1-1.8-9.2-1.4-8 1.1-14.1 7.5-14.8 15.6-1.5 1-2.9 2-4.4 3-1.7-.3-3.5-.4-5.2-.2-8 1-14.2 7.5-14.8 15.6-.8.6-1.5 1.3-2.2 1.9-8.7-3.7-18.7.4-22.4 9.1-1.7 4-1.8 8.5-.3 12.5-3.9 4.1-6 6.7-6.1 6.8-.3.2-.5.9-.3 1.5zM121.1 11.7c-1.9 2.3-5.6 6-10.1 6.7-3 .4-5.9-.4-8.3-2.2 2-2.3 7.5-6.8 18.4-4.5zm-39.8 22c3.4-6.2 10.8-7.5 14.8-7.7-3.1 6.3-8.3 9.7-14.8 7.7zm14 19.9c2.3 19-2 38.4-16.5 50.7-18.5 15.7-51.7 13-66.7 10.7C32.2 109.4 51 100.8 67 88.1c13.3-10.5 22.9-22.7 28.3-34.5zM67.4 82.2c.3.1.5.3.8.4-.3.3-.1.1-.7.6 0-.4 0-.7-.1-1zm25.5-32c-1.2 2.9-2.3 5-3.6 7.3-1-1.5-2.3-2.9-3.6-3.9 2.5-1.2 4.9-2.4 7.2-3.4zm-19.5 3.3c5.7-.7 11.3 2.2 13.9 7.5-4.5 7.2-10 13.4-16.1 19h-.1c-5.5-1.7-9.5-6.3-9.5-13.4.2-6.7 5.2-12.2 11.8-13.1zM58.3 69.7c0 .1 0 0 .1.4-.2-.1-.3-.1-.4-.2zm-9.4 2.2c8.2-1 15.6 5.5 15.3 14-6 4.7-12 8.5-18.6 12.1-4.4-1.7-8.7-6.6-8.5-13.1.2-6.7 5.2-12.2 11.8-13zM33.5 91.1c2.8 2.3 4.9 5.9 4.9 10.5-7.2 3.4-15 6.4-23.7 9-.8-.9-1.7-2.2-2.3-3.5-3.1-6.8 0-14.9 6.8-17.9 4.8-2.2 10.4-1.3 14.3 1.9zm-23.1 19.7s.6.8.6.9c-.6.2-1.3.4-1.9.5.4-.4.9-.9 1.3-1.4z" fill="#000000" data-original="#000000"></path><path d="M21.9 96c.8-.6 1-1.7.4-2.4s-1.7-1-2.4-.4c-.2.2-5.9 4.3-4.5 12.8.2.9 1 1.6 2 1.4s1.6-1.1 1.4-2c-1-6.2 2.9-9.2 3.1-9.4zM48.7 80.7c.8-.6.9-1.7.4-2.4-.6-.8-1.6-.9-2.4-.4-.2.2-5.9 4.3-4.5 12.8.2.9 1 1.6 2 1.4s1.6-1.1 1.4-2c-1-6.2 2.9-9.3 3.1-9.4zM72.9 58.5c-.7-.7-1.8-.7-2.5-.1-7.9 7.4-2.4 13.7-2.3 13.8.6.7 1.7.8 2.4.1.7-.6.8-1.7.2-2.5-.3-.4-3.2-4 2.1-8.9.8-.5.8-1.6.1-2.4z" fill="#000000" data-original="#000000"></path></g></svg>