<svg xmlns="http://www.w3.org/2000/svg" version="1.1" xmlns:xlink="http://www.w3.org/1999/xlink" xmlns:svgjs="http://svgjs.com/svgjs" width="512" height="512" x="0" y="0" viewBox="0 0 466 466" style="enable-background:new 0 0 512 512" xml:space="preserve" class=""><g><path d="M356.133 396.304c-1.172-11.082-2.358-22.448-3.551-33.871-7.913-75.813-15.389-147.421-21.233-167.546-2.874-9.884-9.579-14.728-14.967-18.621-5.976-4.318-10.168-7.354-11.103-16.677 9.036-5.054 15.162-14.722 15.162-25.801 0-9.008-4.068-17.08-10.46-22.492 10.092-11.685 15.549-25.498 15.549-39.792 0-19.538-9.928-37.756-27.955-51.299C280.233 7.176 257.3 0 233.003 0c-24.304 0-47.238 7.176-64.579 20.206-18.022 13.542-27.947 31.76-27.947 51.299 0 14.292 5.455 28.104 15.543 39.788-6.399 5.412-10.471 13.486-10.471 22.496 0 11.075 6.126 20.741 15.163 25.796-.933 9.327-5.127 12.363-11.104 16.682-5.388 3.893-12.093 8.737-14.968 18.624-5.827 20.063-13.268 91.379-21.146 166.882-1.215 11.645-2.424 23.236-3.618 34.531-2.53 23.915-3.415 40.453 6.943 51.964C130.361 463.321 159.034 466 233.003 466c73.956 0 102.625-2.679 116.172-17.73 10.36-11.511 9.481-28.049 6.958-51.966zM175.065 147.325c-7.453 0-13.517-6.072-13.517-13.537 0-7.433 6.063-13.479 13.517-13.479h115.878c7.443 0 13.499 6.047 13.499 13.479 0 7.464-6.056 13.537-13.499 13.537H175.065zm-18.588-75.821c0-19.035 13.285-35.859 33.479-45.862 1.51 3.606 5.073 6.146 9.22 6.146 5.519 0 10.008-4.482 10.008-9.992a9.973 9.973 0 0 0-.438-2.922 100.802 100.802 0 0 1 14.365-2.396c.706 4.824 4.866 8.544 9.89 8.544 5.016 0 9.17-3.721 9.874-8.545 4.952.465 9.755 1.273 14.366 2.393a9.995 9.995 0 0 0-.438 2.926c0 5.51 4.482 9.992 9.992 9.992 4.157 0 7.728-2.545 9.238-6.155 20.203 10.002 33.496 26.83 33.496 45.871 0 11.864-5.357 23.461-15.141 33.013a29.731 29.731 0 0 0-3.447-.208H175.065c-1.168 0-2.318.076-3.451.208-9.782-9.551-15.137-21.148-15.137-33.013zm180.805 366.062C327.766 448.14 296.074 450 233.003 450c-63.082 0-94.778-1.86-104.292-12.434-5.923-6.583-5.003-19.945-2.925-39.58 1.194-11.303 2.404-22.9 3.62-34.553 7.458-71.48 15.171-145.394 20.597-164.078 1.279-4.398 3.957-6.495 8.974-10.12 6.513-4.706 15.091-10.916 17.358-25.91h113.32c2.267 14.994 10.844 21.205 17.357 25.91 5.017 3.625 7.694 5.721 8.973 10.117 5.444 18.747 13.541 96.31 20.685 164.743 1.193 11.43 2.38 22.802 3.552 33.89 2.071 19.635 2.985 32.998-2.94 39.581z" fill="#000000" data-original="#000000"></path><path d="M282.195 189.121h-99.297a8 8 0 0 0 0 16h8.922c-.723 10.751-1.874 27.793-3.235 47.938a8 8 0 0 0 15.963 1.079c1.409-20.833 2.591-38.344 3.308-49.017h50.263c2.021 29.769 5.795 85.449 9.119 134.519a8 8 0 1 0 15.963-1.081 1133987 1133987 0 0 0-9.045-133.438h8.039a8 8 0 0 0 0-16zM195.078 275.617c-4.398-.296-8.225 3.034-8.521 7.442-3.82 56.467-8.342 123.211-10.078 148.823a7.998 7.998 0 0 0 7.989 8.541 8 8 0 0 0 7.974-7.459c1.736-25.612 6.258-92.356 10.078-148.825a8.001 8.001 0 0 0-7.442-8.522zM285.232 368.56c-.298-4.408-4.114-7.729-8.521-7.442a8 8 0 0 0-7.441 8.522c2.155 31.854 3.846 56.862 4.276 63.316a8 8 0 1 0 15.965-1.065c-.432-6.455-2.122-31.471-4.279-63.331zM199.176 58.833c5.519 0 10.008-4.482 10.008-9.992 0-5.519-4.489-10.008-10.008-10.008-5.51 0-9.992 4.489-9.992 10.008 0 5.51 4.482 9.992 9.992 9.992zM266.797 58.833c5.519 0 10.008-4.482 10.008-9.992 0-5.519-4.489-10.008-10.008-10.008-5.51 0-9.992 4.489-9.992 10.008 0 5.51 4.482 9.992 9.992 9.992zM233.002 52.068c5.509 0 9.991-4.482 9.991-9.992 0-5.519-4.482-10.008-9.991-10.008-5.519 0-10.008 4.489-10.008 10.008 0 5.509 4.489 9.992 10.008 9.992z" fill="#000000" data-original="#000000"></path></g></svg>