<svg xmlns="http://www.w3.org/2000/svg" version="1.1" xmlns:xlink="http://www.w3.org/1999/xlink" xmlns:svgjs="http://svgjs.com/svgjs" width="512" height="512" x="0" y="0" viewBox="0 0 512 512" style="enable-background:new 0 0 512 512" xml:space="preserve" class=""><g><path d="M293.244 218.876c-3.909-3.899-10.237-3.899-14.146 0-3.899 3.909-3.899 10.237 0 14.146 3.909 3.899 10.237 3.899 14.146 0 3.899-3.909 3.899-10.238 0-14.146zM166.001 346.119c-3.909-3.899-10.237-3.899-14.146 0-3.899 3.909-3.899 10.237 0 14.146 3.909 3.899 10.237 3.899 14.146 0 3.899-3.909 3.899-10.237 0-14.146z" fill="#000000" data-original="#000000" class=""></path><path d="M504.192 122.667c-6.452-10.069-15.729-17.246-26.387-20.819 9.836-18.648 7.124-42.59-8.91-58.624-15.84-15.838-39.753-18.805-58.617-8.897-3.571-10.665-10.75-19.942-20.819-26.395-32.373-20.783-75.664 2.335-76.568 41.199-.458 19.546-8.65 49.231-14.853 73.988-46.244-18.485-82.899 6.904-110.664 47.76-45.508 66.96-109.686 155.48-149.338 222.876C1.063 456.601-8.221 489.906 6.995 505.124c35.616 35.616 181.252-76.394 334.246-180.369 40.875-27.78 66.247-64.437 47.767-110.676 25.851-6.476 54.836-14.403 73.979-14.851 38.803-.901 62.023-44.13 41.205-76.561zM407.05 64.492l.093-.167c9.627-17.768 33.539-21.037 47.613-6.962 14.152 14.152 10.709 38.048-6.961 47.612l-.169.094-93.715 53.138 53.139-93.715zm-74.17-14.895c.546-23.458 26.709-37.082 45.785-24.836 8.795 5.636 13.945 14.777 14.165 24.835-2.677 3.754 1.484-3.031-55.97 98.15-7.003-6.002-13.814-11.058-20.553-15.259 8.266-33.004 16.064-61.127 16.573-82.89zm-2.875 258.623a3807.029 3807.029 0 0 0-19.15 13.108l-31.752-31.752c-3.905-3.904-10.233-3.904-14.139 0-3.904 3.904-3.904 10.234 0 14.139l29.166 29.166c-27.211 18.85-55.089 38.354-83.576 57.798l-16.276-16.276c-3.904-3.904-10.232-3.904-14.139 0-3.904 3.904-3.904 10.234 0 14.138l13.573 13.573c-36.263 24.474-106.032 71.039-147.071 85.591-21.007 7.449-25.33 3.457-25.504 3.285-.176-.178-4.168-4.497 3.282-25.506 5.42-15.287 15.801-36.009 30.852-61.591 6.413-10.901 13.514-22.412 21.084-34.312l18.956 18.956c3.905 3.904 10.233 3.904 14.139 0 3.904-3.904 3.904-10.234 0-14.138l-22.012-22.011c17.928-27.482 37.741-56.411 57.063-84.32l35.635 35.643c3.903 3.903 10.233 3.907 14.139.001 3.904-3.904 3.905-10.233.002-14.138l-38.195-38.204c16.167-23.28 33.117-47.603 47.831-69.253 3.504-5.156 6.968-9.763 10.39-13.893l36.525 36.517c3.905 3.903 10.233 3.904 14.139-.001 3.903-3.905 3.902-10.234-.002-14.138l-36.784-36.775c37.314-32.492 73.681-13.808 108.802 21.313 52.502 52.485 51.36 93.431-6.978 133.08zM462.52 179.241c-22.57.529-53.073 9.104-82.883 16.572-4.211-6.751-9.267-13.562-15.261-20.553 101.525-57.648 94.437-53.321 98.149-55.969 10.059.215 19.196 5.369 24.838 14.171 12.292 19.15-1.441 45.234-24.843 45.779z" fill="#000000" data-original="#000000" class=""></path></g></svg>