<svg xmlns="http://www.w3.org/2000/svg" version="1.1" xmlns:xlink="http://www.w3.org/1999/xlink" xmlns:svgjs="http://svgjs.com/svgjs" width="512" height="512" x="0" y="0" viewBox="0 0 256 256" style="enable-background:new 0 0 512 512" xml:space="preserve" class=""><g><path d="M56.714 77.854a2.5 2.5 0 0 0-3.463.715c-8.07 12.27-12.514 28.392-12.514 45.395s4.444 33.125 12.514 45.395a2.5 2.5 0 0 0 4.178-2.748c-7.54-11.464-11.692-26.61-11.692-42.647S49.89 92.78 57.43 81.317a2.5 2.5 0 0 0-.715-3.463zM77.913 69.549a2.5 2.5 0 0 0-3.209 1.484c-4.446 12.097-7.101 31.884-7.101 52.93s2.655 40.835 7.101 52.932a2.5 2.5 0 0 0 4.694-1.724c-4.255-11.576-6.795-30.718-6.795-51.207s2.54-39.632 6.795-51.207a2.5 2.5 0 0 0-1.485-3.209zM94.478 69.549a2.5 2.5 0 0 0-1.484 3.208c4.254 11.574 6.794 30.716 6.794 51.207s-2.54 39.632-6.794 51.207a2.5 2.5 0 1 0 4.693 1.724c4.447-12.096 7.102-31.884 7.102-52.931s-2.655-40.835-7.102-52.931a2.5 2.5 0 0 0-3.209-1.484z" fill="#000000" data-original="#000000" class=""></path><path d="M223.364 124.114c-.096-7.558.09-17.784 1.413-25.355.014-.078.024-.158.03-.237l.574-7.409a2.5 2.5 0 0 0-3.916-2.248l-6.938 4.808 3.783-16.261a2.5 2.5 0 0 0-4.131-2.403l-8.968 8.285-1.23-3.137a2.5 2.5 0 0 0-4.355-.549c-3.96 5.493-12.205 12.463-23.264 19.677a68.505 68.505 0 0 0-26.007 2.39 66.598 66.598 0 0 0-37.415-38.227c-3.597-6.647-8.188-15.787-10.536-23.106a2.577 2.577 0 0 0-.083-.224l-2.935-6.826a2.5 2.5 0 0 0-4.513-.17l-3.907 7.48-4.211-16.155a2.5 2.5 0 0 0-4.775-.206l-4.088 11.503-2.547-2.205a2.5 2.5 0 0 0-4.112 1.538c-.953 6.704-5.012 16.708-11.451 28.236-25.395 10.298-41.751 34.008-41.751 60.65 0 29.713 20.528 54.876 48.613 63.006v4.066a2.478 2.478 0 0 0 .147.816l-3.427 3.945a2.5 2.5 0 1 0 3.775 3.28l4.813-5.54h4.287l-2.144 9.623a2.5 2.5 0 1 0 4.88 1.088l2.387-10.712h2.334v11.486a2.5 2.5 0 0 0 5 0v-11.485h2.334l2.386 10.712a2.5 2.5 0 0 0 4.881-1.088l-2.144-9.624h4.287l4.813 5.54a2.5 2.5 0 0 0 3.775-3.28l-3.428-3.944a2.476 2.476 0 0 0 .148-.816v-4.066a69.23 69.23 0 0 0 2.304-.717 68.448 68.448 0 0 0 16.894 25.724l-1.88 3.582a2.501 2.501 0 0 0 1.051 3.376l30.195 15.853a2.498 2.498 0 0 0 3.375-1.052l1.881-3.582c29.275 6.025 58.813-7.441 72.34-33.205 12.313-23.453 8.942-51.942-8.544-72.835zm-151.72 64.422v-.32q.8.17 1.605.32zm29.104 0h-1.605q.806-.15 1.605-.32zm5.747-7.033a65.112 65.112 0 0 1-20.3 3.238c-34.828 0-63.164-27.265-63.164-60.777 0-24.86 15.468-46.969 39.408-56.327a2.495 2.495 0 0 0 1.267-1.1c4.223-7.483 9.347-17.659 11.597-26.421l2.083 1.802a2.5 2.5 0 0 0 3.992-1.052l2.59-7.287 3.793 14.556a2.5 2.5 0 0 0 4.636.527l4.473-8.564.811 1.886c2.572 7.964 7.558 17.788 11.296 24.643a2.503 2.503 0 0 0 1.273 1.127 61.69 61.69 0 0 1 35.357 35.508 65.156 65.156 0 0 0-14.815 7.882c-1.652-12.175-5.645-23.442-11.652-32.575a2.5 2.5 0 0 0-4.177 2.748c6.074 9.237 9.946 20.865 11.222 33.423a64.089 64.089 0 0 0-19.69 66.763zm49.726 44.27-1.799 3.425-25.768-13.528 1.798-3.425a14.395 14.395 0 0 1 19.412-6.045l.311.164a14.391 14.391 0 0 1 6.046 19.41zm-30.979-38.369c.311 1.47.69 2.899 1.122 4.292-9.64-15.312-11.255-34.806-2.505-51.474a50.513 50.513 0 0 1 30.958-25.094 53.964 53.964 0 0 1 15.106-2.159 55.266 55.266 0 0 1 25.719 6.415 54.6 54.6 0 0 1 26.685 31.187 50.434 50.434 0 0 1-34.036 64.827 53.986 53.986 0 0 1-12.953 2.115q2.148-.666 4.288-1.556c11.656-4.86 21.581-14.215 27.948-26.342s8.431-25.608 5.814-37.963c-2.655-12.526-9.788-22.402-20.087-27.81s-22.48-5.67-34.298-.743c-11.655 4.86-21.58 14.216-27.947 26.343s-8.432 25.608-5.814 37.962zm10.24-35.638c5.827-11.097 14.864-19.638 25.446-24.051a38.827 38.827 0 0 1 14.937-3.122 32.295 32.295 0 0 1 15.111 3.677c8.958 4.702 15.18 13.374 17.52 24.42 2.377 11.215.477 23.504-5.349 34.6s-14.862 19.64-25.444 24.052a38.764 38.764 0 0 1-15.06 3.11c10.363-3.332 21.122-12.939 28.253-26.52 11.17-21.275 9.27-44.352-4.235-51.443-6.75-3.544-15.198-2.675-23.788 2.448-8.205 4.893-15.65 13.16-20.96 23.277s-7.89 20.939-7.259 30.47a35.424 35.424 0 0 0 1.311 7.61 38.845 38.845 0 0 1-5.83-13.927c-2.378-11.215-.478-23.504 5.348-34.6zm21.11 53.077a19.273 19.273 0 0 0-4.094-2.907l-.312-.164a19.273 19.273 0 0 0-4.716-1.718 63.857 63.857 0 0 1 6.58-18.205c6.875-13.095 15.118-20.32 18.557-20.32a1.727 1.727 0 0 1 .813.18c2.745 1.442 1.92 13.098-5.579 27.382a63.872 63.872 0 0 1-11.25 15.752zm3.22 3.843a68.372 68.372 0 0 0 12.456-17.271c7.354-14.007 10.91-30.23 3.475-34.133-7.433-3.899-18.767 8.237-26.12 22.243a68.377 68.377 0 0 0-7.146 20.06 19.33 19.33 0 0 0-1.469.098 29.572 29.572 0 0 1-1.365-7.328c-.571-8.625 1.806-18.503 6.696-27.816s11.67-16.88 19.094-21.307a24.446 24.446 0 0 1 12.3-3.88 14.049 14.049 0 0 1 6.603 1.565c11.064 5.808 12.02 25.857 2.132 44.691-6.702 12.765-16.692 21.737-25.879 24.39a19.251 19.251 0 0 0-.776-1.312zm67.668-14.061c-12.307 23.44-39.01 35.832-65.721 30.857a19.18 19.18 0 0 0 .921-3.872 58.842 58.842 0 0 0 27.01-1.411 55.434 55.434 0 0 0 37.381-71.203 60.384 60.384 0 0 0-73.653-38.67 55.468 55.468 0 0 0-33.986 27.572c-11.693 22.272-6.55 49.114 10.802 66.644a19.185 19.185 0 0 0-2.687 2.978c-19.264-19.158-24.225-48.179-11.919-71.619 11.556-22.01 35.528-34.393 61.075-31.554a2.478 2.478 0 0 0 1.633-.384c7.217-4.661 16.484-11.288 22.55-18.002l1.006 2.565a2.5 2.5 0 0 0 4.024.923l5.681-5.248-3.408 14.651a2.5 2.5 0 0 0 3.86 2.621l7.941-5.503-.159 2.047c-1.425 8.246-1.577 19.262-1.453 27.07a2.5 2.5 0 0 0 .603 1.588c16.655 19.39 19.992 46.061 8.499 67.95z" fill="#000000" data-original="#000000" class=""></path></g></svg>