<svg xmlns="http://www.w3.org/2000/svg" version="1.1" xmlns:xlink="http://www.w3.org/1999/xlink" xmlns:svgjs="http://svgjs.com/svgjs" width="512" height="512" x="0" y="0" viewBox="0 0 512 512" style="enable-background:new 0 0 512 512" xml:space="preserve" class=""><g><path d="M482.65 478.23H107.2c-16.84 0-23.52-7.86-26.17-14.45-5.06-12.64-.15-32.75 15-61.48 11.59-21.97 29.14-48.9 52.17-80.06 40.45-54.73 84.27-104.22 90.35-110.02a5.991 5.991 0 0 1 4.15-1.66h239.95c16.17 0 29.32 13.15 29.32 29.31v209.04c0 16.16-13.15 29.32-29.32 29.32zM245.21 222.56c-9.9 10.42-50.63 57.1-87.37 106.81-68.9 93.24-68.88 121.94-65.67 129.95 1.19 2.96 4.04 6.91 15.03 6.91h375.45c9.55 0 17.32-7.77 17.32-17.32V239.87c0-9.54-7.77-17.31-17.32-17.31z" fill="#000000" data-original="#000000" class=""></path><path d="M452.74 222.56H289.27c-3.32 0-6-2.69-6-6v-34.15c0-3.31 2.68-6 6-6h163.47c3.32 0 6 2.69 6 6v34.15c0 3.31-2.68 6-6 6zm-157.48-12h151.49v-22.15H295.26zM135.26 356.57h-35.13c-3.32 0-6-2.69-6-6V249.82c0-3.31 2.68-6 6-6h405.84c3.31 0 6 2.69 6 6s-2.69 6-6 6H106.13v88.75h29.13c3.31 0 6 2.68 6 6 0 3.31-2.69 6-6 6z" fill="#000000" data-original="#000000" class=""></path><path d="M91.6 380.33H14.56c-8.01 0-14.53-6.52-14.53-14.53V234.58c0-8 6.52-14.52 14.53-14.52H91.6c8.01 0 14.53 6.52 14.53 14.52V365.8c0 8.01-6.52 14.53-14.53 14.53zM14.56 232.06c-1.37 0-2.53 1.16-2.53 2.52V365.8c0 1.37 1.16 2.53 2.53 2.53H91.6c1.37 0 2.53-1.16 2.53-2.53V234.58c0-1.36-1.16-2.52-2.53-2.52zM167.58 255.82h-43.72c-3.31 0-6-2.69-6-6v-124.9c0-3.31 2.69-6 6-6h43.72c3.31 0 6 2.69 6 6v124.9c0 3.31-2.69 6-6 6zm-37.72-12h31.72v-112.9h-31.72z" fill="#000000" data-original="#000000" class=""></path><path d="M319.54 130.92H91.43c-13.78 0-25-11.21-25-25V41.67c0-3.31 2.69-5.99 6-5.99h266.12c3.31 0 6 2.68 6 5.99v64.25c0 13.79-11.22 25-25.01 25zM78.43 47.67v58.25c0 7.17 5.83 13 13.01 13h228.1c7.18 0 13.01-5.83 13.01-13V47.67z" fill="#000000" data-original="#000000" class=""></path><path d="M367.07 47.67H43.91c-3.31 0-6-2.68-6-6V8.41c0-3.32 2.69-6 6-6h323.16c3.31 0 6 2.68 6 6v33.26c0 3.32-2.69 6-6 6zM49.91 35.68h311.16V14.41H49.91zM461.57 509.59h-67.48c-3.31 0-6-2.68-6-6v-31.36c0-3.32 2.69-6 6-6h67.48c3.32 0 6 2.68 6 6v31.36c0 3.32-2.68 6-6 6zm-61.48-12h55.48v-19.36h-55.48zM205.06 509.59h-67.48c-3.32 0-6-2.68-6-6v-31.36c0-3.32 2.68-6 6-6h67.48c3.31 0 6 2.68 6 6v31.36c0 3.32-2.69 6-6 6zm-61.48-12h55.48v-19.36h-55.48zM100.13 327.14H6.03c-3.31 0-6-2.68-6-5.99v-41.91c0-3.31 2.69-6 6-6h94.1c3.31 0 6 2.69 6 6v41.9c0 3.32-2.69 6-6 6zm-88.1-11.99h82.1v-29.91h-82.1zM153.61 410.64c-.36 0-.73-.04-1.1-.11a5.984 5.984 0 0 1-4.8-6.99c9.4-50.68 36.64-84.8 57.84-104.5 22.98-21.35 43.6-30.66 44.46-31.05 3.03-1.35 6.58.01 7.92 3.04a6 6 0 0 1-3.03 7.92c-.32.14-20.03 9.12-41.51 29.19-19.75 18.43-45.12 50.33-53.89 97.59a5.992 5.992 0 0 1-5.89 4.91zM409.89 332.81c-18.51 0-33.56-15.05-33.56-33.56s15.05-33.56 33.56-33.56c18.5 0 33.56 15.05 33.56 33.56s-15.06 33.56-33.56 33.56zm0-55.12c-11.89 0-21.57 9.67-21.57 21.56s9.68 21.56 21.57 21.56 21.56-9.67 21.56-21.56-9.67-21.56-21.56-21.56zM304.87 423.1c-20.34 0-36.89-16.55-36.89-36.89s16.55-36.89 36.89-36.89 36.88 16.55 36.88 36.89-16.54 36.89-36.88 36.89zm0-61.78c-13.73 0-24.89 11.17-24.89 24.89 0 13.73 11.16 24.9 24.89 24.9 13.72 0 24.89-11.17 24.89-24.9 0-13.72-11.17-24.89-24.89-24.89zM428.89 377.96h-55.13c-3.31 0-6-2.69-6-6s2.69-6 6-6h55.13c3.31 0 6 2.69 6 6s-2.69 6-6 6zM428.89 406.47h-55.13c-3.31 0-6-2.69-6-6 0-3.32 2.69-6 6-6h55.13c3.31 0 6 2.68 6 6 0 3.31-2.69 6-6 6z" fill="#000000" data-original="#000000" class=""></path><path d="M335.76 392.21h-61.78c-3.32 0-6-2.68-6-6 0-3.31 2.68-6 6-6h61.78c3.31 0 5.99 2.69 5.99 6 0 3.32-2.68 6-5.99 6z" fill="#000000" data-original="#000000" class=""></path></g></svg>