<svg xmlns="http://www.w3.org/2000/svg" version="1.1" xmlns:xlink="http://www.w3.org/1999/xlink" xmlns:svgjs="http://svgjs.com/svgjs" width="512" height="512" x="0" y="0" viewBox="0 0 512 512" style="enable-background:new 0 0 512 512" xml:space="preserve" class=""><g><path d="M218.804 40.861c10.616-14.992 19.882-24.222 33.211-29.458 28.147-11.058 49.457 3.293 66.187 19.238s41.092-9.949 67.647-3.72c28.3 6.638 55.868 32.586 60.539 80.273" style="stroke-width:15;stroke-linecap:round;stroke-linejoin:round;stroke-miterlimit:10;" fill="none" stroke="#000000" stroke-width="15" stroke-linecap="round" stroke-linejoin="round" stroke-miterlimit="10" data-original="#000000"></path><path d="M89.727 41.164c27.482-11.989 34.94 8.276 56.603 5.141 20.912-3.026 37.279-33.136 80.105 5.437 14.094 12.694 32.244-5.615 45.537 3.669 17.884 12.491 3.086 28.771 21.015 37.918M65.009 157.598c-13.123-31.804-10.944-73.419 4.68-98.222" style="stroke-width:15;stroke-linecap:round;stroke-linejoin:round;stroke-miterlimit:10;" fill="none" stroke="#000000" stroke-width="15" stroke-linecap="round" stroke-linejoin="round" stroke-miterlimit="10" data-original="#000000"></path><path d="M264.23 212.7c5.415-14.819 5.323-30.114-3.971-41.774-12.93-16.22-33.825-3.526-34.529-24.683s-4.228-39.493-31.148-43.773c-22.118-3.516-45.796-31.262-68.345-22.799-24.977 9.374-22.098 39.93-38.607 58.735-15.754 17.945-36.303 21.706-44.881 50.856-9.165 31.142 31.945 49.836 27.248 83.395-6.33 45.215 15.571 46.5 49.797 74.576 57.314 47.015 31.945 136.345 118.621 157.266" style="stroke-width:15;stroke-linecap:round;stroke-linejoin:round;stroke-miterlimit:10;" fill="none" stroke="#000000" stroke-width="15" stroke-linecap="round" stroke-linejoin="round" stroke-miterlimit="10" data-original="#000000"></path><path d="M354.865 394.042c12.037-42.687 17.786-61.299 54.316-90.063 28.255-22.248 82.682-50.777 52.616-110.016-15.281-30.108 13.48-44.472 3.758-70.523-7.282-19.511-25.755-13.143-43.203-26.348-13.641-10.324-21.887-31.456-42.298-28.991-18.322 2.212-18.371 17.614-37.348 25.955-16.579 7.287-50.708-13.746-62.716 12.694-10.57 23.273 14.798 54.303 0 83.922-17.853 35.733-74.435 72.969-85.408 162.203-9.019 73.344 43.832 151.625 43.832 151.625h36.643s43.042-11.716 70.503-81.966" style="stroke-width:15;stroke-linecap:round;stroke-linejoin:round;stroke-miterlimit:10;" fill="none" stroke="#000000" stroke-width="15" stroke-linecap="round" stroke-linejoin="round" stroke-miterlimit="10" data-original="#000000"></path><path d="M258.85 504.5s5.303-107.195 62.799-196.415c61.929-96.099 60.285-161.842 60.285-161.842" style="stroke-width:15;stroke-linecap:round;stroke-linejoin:round;stroke-miterlimit:10;" fill="none" stroke="#000000" stroke-width="15" stroke-linecap="round" stroke-linejoin="round" stroke-miterlimit="10" data-original="#000000"></path><path d="M278.815 401.827s-24.898-50.124-5.872-110.54M342.487 272.657s55.185-29.093 72.097-50.955M193.86 380.153s-38.969-138.287-46.82-220.04" style="stroke-width:15;stroke-linecap:round;stroke-linejoin:round;stroke-miterlimit:10;" fill="none" stroke="#000000" stroke-width="15" stroke-linecap="round" stroke-linejoin="round" stroke-miterlimit="10" data-original="#000000"></path><path d="M164.945 264.016s20.965-29.855 37.357-59.71M110.397 204.307s30.688 15.985 45.88 17.396" style="stroke-width:15;stroke-linecap:round;stroke-linejoin:round;stroke-miterlimit:10;" fill="none" stroke="#000000" stroke-width="15" stroke-linecap="round" stroke-linejoin="round" stroke-miterlimit="10" data-original="#000000"></path></g></svg>