<svg xmlns="http://www.w3.org/2000/svg" version="1.1" xmlns:xlink="http://www.w3.org/1999/xlink" xmlns:svgjs="http://svgjs.com/svgjs" width="512" height="512" x="0" y="0" viewBox="0 0 340 340" style="enable-background:new 0 0 512 512" xml:space="preserve" class=""><g><path d="M321.838 44.005a22.6 22.6 0 0 0 2.726-13.914c-1.526-11.6-8.6-17.613-8.9-17.863a3.525 3.525 0 0 0-5.516 1.453c-4.432 11.752-13.178 21.975-18 27.022a13.578 13.578 0 0 1-9.787 4.153H270.6c-8.325-.05-15.222 6.805-14.918 14.953a42.1 42.1 0 0 0-26.189 14.461c-30.025 35.166-70.254 68.361-98.716 90.016a178.582 178.582 0 0 1-45.886 25.246c-34.127 12.093-64.141 34.433-68.533 71.538-8.122 42.716 29.965 68.359 66.964 67.482 101.007-.977 189.03-145.043 210.553-202.755 3.966-11.39 4.847-21.13 4.115-28.954a16.958 16.958 0 0 0 11.793-16.305 71.992 71.992 0 0 0-.362-6.746 23.554 23.554 0 0 1 3.547-14.939c3.581-5.592 6.8-11.161 8.87-14.848zm-34.506 79.307C268.1 175.649 194.428 295.2 109.823 318c-.354.112-26.821 7.975-51.964-.506 51.067-1.283 114.7-59.569 161.054-116.191a3.5 3.5 0 1 0-5.465-4.375C171.55 248.437 80.174 338.594 33.132 301.557 21.1 288.348 21.747 274.191 23.3 261.951c4.115-34.528 32.405-54.561 64.033-65.858a185.642 185.642 0 0 0 47.682-26.236c28.734-21.862 69.373-55.4 99.8-91.042a34.935 34.935 0 0 1 23.861-12.3C227.592 106.042 186 182.726 74.013 230.55c-1.407.646-34.615 16.078-45.85 41.245a3.5 3.5 0 1 0 6.391 2.854c9.986-22.366 41.02-37.1 42.335-37.715 106.3-44.9 159-125.339 181.5-159.69 5.125-8.336 12.8-9.681 19.664-5.132 9.274 10.007.149 29.8-12.093 48.8-4.971 8.385-11.159 18.822-19.074 30.539a3.5 3.5 0 1 0 5.8 3.918c8.03-11.887 14.277-22.422 19.3-30.887 7.549-11.942 16-27.174 16.623-37.691 3.106 8.358 4.291 20.334-1.277 36.521zm19.741-68.234a30.573 30.573 0 0 0-4.618 19.394c.812 6.561.626 12.486-5.614 15.311-4.12-17.3-16.983-29.98-34.154-30.315a7.7 7.7 0 0 1 7.913-7.612c9.8-.186 19.087 1.673 26.619-6.319C302.6 39.9 309.551 31.5 314.36 21.579c2.988 4.487 4.984 13.472 1.375 19-2.025 3.605-5.171 9.048-8.662 14.499z" fill="#000000" data-original="#000000"></path><path d="M230.325 173.19c-3.277 3.344 1.613 8.3 5 5.072 3.275-3.344-1.611-8.302-5-5.072z" fill="#000000" data-original="#000000"></path></g></svg>