<svg xmlns="http://www.w3.org/2000/svg" version="1.1" xmlns:xlink="http://www.w3.org/1999/xlink" xmlns:svgjs="http://svgjs.com/svgjs" width="512" height="512" x="0" y="0" viewBox="0 0 511.997 511.997" style="enable-background:new 0 0 512 512" xml:space="preserve" class=""><g><path d="M511.868 153.314c-2.093-23.649-27.799-33.904-51.032-32.559-2.055-.985-4.153-1.492-4.379-4.145-2.1-24.683-17.261-46.653-39.568-57.334-21.712-10.399-29.332-3.026-32.153-11.174-6.072-17.544-19.418-31.69-36.615-38.81a7.5 7.5 0 0 0-5.738 13.858c13.237 5.48 23.509 16.364 28.18 29.859 2.895 8.36 10.268 14.032 18.786 14.448 7.315.358 14.401 2.158 21.062 5.347 17.533 8.397 29.452 25.67 31.102 45.079a18.806 18.806 0 0 0 1.906 6.803c-12.289 5.194-21.751 15.281-27.882 28.5-24.583-28.14-56.227-49.084-91.761-60.765-3.605-24.081-18.842-43.951-39.559-54.121 6.921-8.656 16.689-14.879 27.77-17.506a7.5 7.5 0 0 0-3.461-14.593C292.503 10 278.593 19.634 269.533 32.988a71.337 71.337 0 0 0-12.867-1.89c-20.58-1.128-40.66 6.615-55.111 21.227-2.379 2.405-5.719 3.202-8.51 2.03-36.094-15.164-77.502-.799-96.966 32.31a5.202 5.202 0 0 1-4.713 2.559 89.667 89.667 0 0 0-12.967.42c-65.325 6.872-101.28 82.579-62.235 137.771 3.542 5.007 4.214 11.212 1.797 16.6-9.882 22.024-6.39 48.387 10.172 67.2-18.715 13.649-25.683 31.4-18.631 47.555 8.207 18.796 33.35 29.756 57.259 24.942 6.195-1.245 11.623 8.998 19.935 25.829 17.399 35.23 45.125 91.4 135.694 91.393 11.228-.001 23.443-.877 36.702-2.752 8.016 3.057 23.958 7.819 45.499 7.819 52.902 0 100.77-28.499 138.253-65.506 20.18-19.923 34.678-45.335 43.09-75.53a7.499 7.499 0 0 0-5.211-9.236 7.497 7.497 0 0 0-9.236 5.211c-7.702 27.643-20.884 50.818-39.18 68.883-38.428 37.939-80.373 59.041-121.299 61.025-20.225.98-35.704-2.938-44.013-5.775l-.019-.023c-.236-.564-.515-1.218-.827-1.936 6.625-21.516 30.756-82.668 93.257-93.169a7.563 7.563 0 0 0 1.611-.424c133.149-48.586 105.853-139.834 108.444-176.748 5.527 23.176 13.76 68.128 8.504 114.338a7.5 7.5 0 0 0 14.902 1.696c6.527-57.39-6.298-111.386-11.474-130.037 19.05-8.806 32.055-27.61 30.475-45.456zM31.645 250.152c4.543-10.126 3.302-22.16-3.238-31.402-34.231-48.384 1.127-117.039 62.352-114.546a20.166 20.166 0 0 0 18.251-9.943c15.69-26.691 49.093-38.321 78.227-26.084 8.464 3.556 18.27 1.472 24.98-5.31 30.237-30.572 83.14-18.038 95.25 24.925-134.929-32.236-263.18 74.391-256.414 212.637a54.48 54.48 0 0 0-9.585 3.101c-14.315-14.342-17.769-35.662-9.823-53.378zm36.428 118.42c-1.397 0-2.822.146-4.27.438-19.004 3.824-35.845-5.453-40.554-16.241-7.788-17.835 19.19-38.424 38.521-38.529 14.934-.034 29.205 10.294 37.98 21.525.145.187.269.346.44.577 1.531 2.063 3.458 3.073 5.617 3.237 33.056 2.524 52.631 33.599 59.768 65.9.173.784.478 2.24.599 2.99a7.497 7.497 0 0 0 6.927 6.314c35.076 2.249 61.856 37.76 77.027 69.451-156.271 18.28-138.045-115.662-182.055-115.662zm282.106 7.918c-26.621 6.064-49.8 21.043-68.105 43.903 1.726-17.504 2.119-34.663 1.19-51.413a7.413 7.413 0 0 0-.061-.919c-.935-16-3.065-31.628-6.426-46.814-.02-.091-.043-.181-.063-.271.251-4.063 1.817-21.958 10.667-43.461 13.327-32.377 36.028-57.241 67.47-73.898a7.5 7.5 0 0 0 3.116-10.138 7.497 7.497 0 0 0-10.136-3.115c-43.38 22.982-64.492 57.301-74.565 82.046a169.76 169.76 0 0 0-5.729 16.446c-.263-.75-.533-1.498-.803-2.246a277.128 277.128 0 0 0-24.709-51.275c2.356-10.529 13.066-50.173 45.4-77.209a7.498 7.498 0 1 0-9.619-11.506c-27.504 22.997-40.821 53.484-46.795 72.133-30.692-42.781-63.299-63.093-64.758-63.99a7.497 7.497 0 0 0-10.313 2.468 7.496 7.496 0 0 0 2.468 10.313c.232.143 15.541 9.679 34.658 29.25-28.527-3.008-50.561 4.238-51.709 4.626a7.492 7.492 0 0 0-4.703 9.489c1.315 3.92 5.559 6.033 9.489 4.725.302-.102 30.045-9.768 63.204-.543a266.176 266.176 0 0 1 15.166 20.644 259.11 259.11 0 0 1 18.839 33.681c-50.628-23.359-117.7 2.684-120.939 3.97-3.847 1.527-5.727 5.882-4.202 9.731s5.881 5.731 9.732 4.21c.817-.322 81.191-31.457 125.105 5.863 6.413 18.216 11.445 38.857 13.937 61.931-15.551-8.053-43.351-19.064-75.252-16.196a7.5 7.5 0 0 0-6.798 8.14c.37 4.124 4.035 7.172 8.14 6.797 35.222-3.159 65.789 13.451 75.297 19.283 1.107 23.917-.539 50.197-6.047 78.846a190.26 190.26 0 0 0-5.504 12.468c-13.522-23.961-39.211-58.528-76.995-64.037-8.633-36.889-31.407-70.776-69.509-75.461-10.913-13.196-26.89-24.121-44.286-25.553-8.869-186.293 227.68-275.365 343.913-129.501-.108.5-.207.975-.292 1.41-19.173 13.767-29.171 35.565-28.957 63.272.109 14.211 2.879 26.608 4.762 33.433-37.781 28.488-36.848 87.924-35.278 108.468zm119.756-189.338c-46.302 14.594 40.81 125.9-104.985 184.799-1.148-21.504-.167-73.417 33.287-94.546a7.512 7.512 0 0 0 3.059-8.862c-.215-.601-20.919-60.454 19.309-86.549 3.709-2.405 2.969-5.143 4.597-11.472l.14-.463c6.206-23.246 21.368-37.05 45.983-33.976 41.779 5.222 26.284 42.347-1.39 51.069z" fill="#000000" data-original="#000000"></path></g></svg>