<svg xmlns="http://www.w3.org/2000/svg" version="1.1" xmlns:xlink="http://www.w3.org/1999/xlink" xmlns:svgjs="http://svgjs.com/svgjs" width="512" height="512" x="0" y="0" viewBox="0 0 511 512" style="enable-background:new 0 0 512 512" xml:space="preserve" class=""><g><path d="M433.93 203.293c-14.559-25.184-34.828-47.64-59.11-65.582 20.399-18.711 28.13-40.98 28.5-42.063 1.64-4.84-.64-10.12-5.28-12.27-4.63-2.14-10.15-.429-12.778 3.95-.973 1.602-7.942 12.211-23.473 12.211-5.39 0-11.82-1.281-19.379-4.66-38.351-17.14-78.95-10.57-86.32-9.172h-5.79C241.66 64.949 214.68 6.148 184.36.559c-10.919-2.024-20.282 1.507-25.669 9.687-6.562 9.973-7.152 29.14 4.43 46.492 4.29 6.418 9.649 15.532 15.77 26.79-17.141-.868-42.48.421-66.922 11.35-29.34 13.102-41.547-5.378-42.84-7.53-2.578-4.34-8-6.078-12.629-4.04a9.994 9.994 0 0 0-5.54 12.04c.36 1.191 8.071 26.152 28.59 47.453-22.628 18.05-41.448 40.21-54.84 64.672C8.649 236.843.5 268.503.5 301.574c0 56.383 24.04 109.344 67.7 149.113C111.601 490.23 169.237 512 230.5 512s118.898-21.77 162.3-61.313c43.66-39.769 67.7-92.73 67.7-149.113 0-34.242-9.191-68.222-26.57-98.281zm-313.801-90.152c27.531-12.313 57.41-10.153 69.441-8.551l1.078 2.469v.02l11.082 25.401c2.2 5.032 8.032 7.352 13.079 5.2 5.05-2.14 7.43-7.95 5.332-13.02-2.75-6.648-7.563-17.61-11.11-25.629-1.32-2.98-2.37-5.351-2.941-6.61a4.428 4.428 0 0 0-.2-.41 9.555 9.555 0 0 0-.449-1.023c-10.293-20-18.941-35.261-25.691-45.36-6.371-9.53-6.82-20.62-4.352-24.382.352-.527 1.18-1.789 5.332-1.027 13.66 2.527 37.66 38 53.489 79.082a10.002 10.002 0 0 0 9.332 6.406h13.527c.703 0 1.41-.078 2.094-.219.2-.039 10.398-2.129 25.008-2.129 14.218 0 32.629 1.98 50.07 9.782 11.898 5.316 22.129 6.84 30.648 6.328-3.578 3.691-7.707 7.3-12.449 10.539-20.738 14.172-46.73 16.972-77.258 8.332a9.993 9.993 0 0 0-10.28 3.07 10.03 10.03 0 0 0-1.583 10.617c1.531 3.422 4.281 6.141 8.461 10.274 7.672 7.566 20.313 20.066 26.82 40.82-10.05-4.262-19.578-4.84-26.418-5.262-3.261-.199-6.632-.41-8.082-.93l-.98-.34c-22.54-7.96-25.899-15.179-25.899-18.78 0-5.52-4.57-10-10.09-10s-10 4.48-10 10c0 8.59-25.312 24.203-35.652 27.89-1.187.434-2.437.832-3.738 1.262-5.79 1.879-12.75 4.129-20.89 9.34 6.968-20.903 19.25-35.32 26.84-44.211 3.628-4.27 6.03-7.078 7.34-10 1.57-3.55.96-7.692-1.58-10.621a10.022 10.022 0 0 0-10.288-3.07c-30.762 8.71-56.91 4.492-77.73-12.547h-.012c-6.282-5.153-11.461-10.942-15.692-16.653 9.383 1.27 20.813.012 34.39-6.058 27.532-12.313-13.577 6.07 0 0zM230.5 492c-115.79 0-210-85.422-210-190.426 0-56.531 27.07-109.183 74.54-145.515 14.054 9.714 30.519 15.293 47.542 16.449 5.04.34 10.102.312 15.137-.04-11.278 15.313-24.399 38.563-25.957 70.364a10 10 0 0 0 9.988 10.488c1.621 0 3.21-.386 4.64-1.136.32-.172.622-.364.919-.551a10.45 10.45 0 0 0 2.05-1.832c14.832-17.41 25.32-20.82 34.57-23.82 1.481-.481 2.88-.942 4.301-1.442.34-.129 24.692-9.93 38.899-25.23 9.512 9.132 23.281 14 29.34 16.14l.902.32c4.129 1.47 8.719 1.75 13.59 2.051 10.758.66 22.96 1.41 34.05 14.43a9.994 9.994 0 0 0 17.598-6.969c-1.418-29.011-12.55-48.972-23.097-62.304 15.808 1.109 31.89-.864 46.597-6.934 4.063-1.676 8.028-3.61 11.813-5.844 24.308 16.871 44.52 38.578 58.7 63.102 15.616 27.02 23.878 57.539 23.878 88.27C440.5 406.577 346.29 492 230.5 492zm0 0" fill="#000000" data-original="#000000" class=""></path><path d="M230.5 471.914c-102.563 0-186-76.414-186-170.34 0-5.523 4.477-10 10-10s10 4.477 10 10c0 82.899 74.469 150.34 166 150.34 5.523 0 10 4.477 10 10s-4.477 10-10 10zM271.832 467.52c-5.523 0-10.004-4.477-10.004-10 0-5.524 4.473-10 9.992-10h.012c5.523 0 10 4.476 10 10 0 5.523-4.477 10-10 10zm0 0" fill="#000000" data-original="#000000" class=""></path></g></svg>